<svg width="1920" height="460" viewBox="0 0 1920 460" fill="none" xmlns="http://www.w3.org/2000/svg">
<mask id="mask0_400_3409" style="mask-type:alpha" maskUnits="userSpaceOnUse" x="0" y="0" width="1920" height="460">
<rect width="1920" height="460" fill="white"/>
</mask>
<g mask="url(#mask0_400_3409)">
<rect width="1920" height="460" fill="#F7F7F7"/>
<circle cx="369.5" cy="369.5" r="349.5" fill="url(#paint0_linear_400_3409)"/>
<circle cx="1091" cy="24" r="231" fill="url(#paint1_linear_400_3409)"/>
<circle cx="682" cy="68" r="27" stroke="#FAE4D8" stroke-width="2"/>
<circle cx="1558" cy="344" r="16" stroke="#FAE4D8" stroke-width="2"/>
<circle cx="1778.5" cy="42.5" r="10.5" stroke="#FAE4D8" stroke-width="2"/>
<path d="M1889.26 142.482L1845.13 176.02L1838.15 121.032L1889.26 142.482Z" stroke="#FAE3D7" stroke-width="2"/>
<path d="M1367.02 428.184L1334.11 420.426L1357.28 395.806L1367.02 428.184Z" stroke="#FAE3D7" stroke-width="2"/>
<path d="M786.712 133.74L765.554 126.039L782.802 111.566L786.712 133.74Z" stroke="#FAE3D7"/>
<path d="M595.905 398.581L554.368 424.633L552.576 375.635L595.905 398.581Z" stroke="white"/>
<path d="M47.2961 58.7348L66.854 44.3999L69.4895 68.5049L47.2961 58.7348Z" stroke="#FAE3D7"/>
<rect x="1104.08" y="360.383" width="49" height="49" transform="rotate(33.015 1104.08 360.383)" stroke="#FAE3D7" stroke-width="2"/>
<rect x="1619.36" y="43.3456" width="29" height="29" transform="rotate(-28.8371 1619.36 43.3456)" stroke="#FAE3D7" stroke-width="2"/>
<g opacity="0.5">
<path d="M68.0432 369.768C68.2238 369.768 68.3703 369.621 68.3703 369.441C68.3703 369.26 68.2238 369.114 68.0432 369.114C67.8625 369.114 67.716 369.26 67.716 369.441C67.716 369.621 67.8625 369.768 68.0432 369.768Z" fill="white"/>
<path d="M66.303 380.794C66.4837 380.794 66.6302 380.648 66.6302 380.467C66.6302 380.287 66.4837 380.14 66.303 380.14C66.1223 380.14 65.9759 380.287 65.9759 380.467C65.9759 380.648 66.1223 380.794 66.303 380.794Z" fill="white"/>
<path d="M61.2319 390.736C61.4126 390.736 61.5591 390.59 61.5591 390.409C61.5591 390.228 61.4126 390.082 61.2319 390.082C61.0512 390.082 60.9047 390.228 60.9047 390.409C60.9047 390.59 61.0512 390.736 61.2319 390.736Z" fill="white"/>
<path d="M53.335 398.627C53.5157 398.627 53.6622 398.481 53.6622 398.3C53.6622 398.12 53.5157 397.973 53.335 397.973C53.1543 397.973 53.0078 398.12 53.0078 398.3C53.0078 398.481 53.1543 398.627 53.335 398.627Z" fill="white"/>
<path d="M43.3859 403.694C43.5644 403.694 43.7131 403.546 43.7131 403.367C43.7131 403.189 43.5644 403.041 43.3859 403.041C43.2075 403.041 43.0588 403.189 43.0588 403.367C43.0736 403.546 43.2075 403.694 43.3859 403.694Z" fill="white"/>
<path d="M32.3513 405.433C32.532 405.433 32.6785 405.287 32.6785 405.106C32.6785 404.926 32.532 404.779 32.3513 404.779C32.1706 404.779 32.0241 404.926 32.0241 405.106C32.0241 405.287 32.1706 405.433 32.3513 405.433Z" fill="white"/>
<path d="M21.3313 403.694C21.5098 403.694 21.6585 403.546 21.6585 403.367C21.6585 403.189 21.5098 403.041 21.3313 403.041C21.1529 403.041 21.0042 403.189 21.0042 403.367C21.0042 403.546 21.1529 403.694 21.3313 403.694Z" fill="white"/>
<path d="M11.3822 398.642C11.5712 398.642 11.7243 398.489 11.7243 398.3C11.7243 398.111 11.5712 397.958 11.3822 397.958C11.1933 397.958 11.0402 398.111 11.0402 398.3C11.0402 398.489 11.1933 398.642 11.3822 398.642Z" fill="white"/>
<path d="M3.48556 390.781C3.69376 390.781 3.85734 390.617 3.85734 390.409C3.85734 390.201 3.69376 390.038 3.48556 390.038C3.27736 390.038 3.11377 390.201 3.11377 390.409C3.11377 390.617 3.27736 390.781 3.48556 390.781Z" fill="white"/>
<path d="M3.48557 348.873C3.70864 348.873 3.8871 348.695 3.8871 348.472C3.8871 348.249 3.70864 348.071 3.48557 348.071C3.26249 348.071 3.08403 348.249 3.08403 348.472C3.08403 348.695 3.26249 348.873 3.48557 348.873Z" fill="white"/>
<path d="M11.3822 340.997C11.6039 340.997 11.7837 340.818 11.7837 340.596C11.7837 340.374 11.6039 340.195 11.3822 340.195C11.1604 340.195 10.9807 340.374 10.9807 340.596C10.9807 340.818 11.1604 340.997 11.3822 340.997Z" fill="white"/>
<path d="M21.3315 335.915C21.5546 335.915 21.7331 335.737 21.7331 335.514C21.7331 335.291 21.5546 335.113 21.3315 335.113C21.1085 335.113 20.93 335.291 20.93 335.514C20.93 335.752 21.1085 335.915 21.3315 335.915Z" fill="white"/>
<path d="M32.3513 334.147C32.5595 334.147 32.7231 333.983 32.7231 333.775C32.7231 333.567 32.5595 333.404 32.3513 333.404C32.1431 333.404 31.9795 333.567 31.9795 333.775C31.9944 333.983 32.158 334.147 32.3513 334.147Z" fill="white"/>
<path d="M43.3859 335.9C43.5942 335.9 43.7577 335.737 43.7577 335.529C43.7577 335.321 43.5942 335.157 43.3859 335.157C43.1777 335.157 43.0142 335.321 43.0142 335.529C43.0142 335.737 43.1777 335.9 43.3859 335.9Z" fill="white"/>
<path d="M53.335 340.968C53.5432 340.968 53.7068 340.804 53.7068 340.596C53.7068 340.388 53.5432 340.225 53.335 340.225C53.1268 340.225 52.9632 340.388 52.9632 340.596C52.9632 340.789 53.1268 340.968 53.335 340.968Z" fill="white"/>
<path d="M61.2319 348.829C61.4252 348.829 61.5739 348.68 61.5739 348.487C61.5739 348.294 61.4252 348.146 61.2319 348.146C61.0385 348.146 60.8898 348.294 60.8898 348.487C60.8898 348.68 61.0385 348.829 61.2319 348.829Z" fill="white"/>
<path d="M66.303 358.755C66.4837 358.755 66.6302 358.609 66.6302 358.429C66.6302 358.248 66.4837 358.102 66.303 358.102C66.1223 358.102 65.9759 358.248 65.9759 358.429C65.9759 358.609 66.1223 358.755 66.303 358.755Z" fill="white"/>
<path d="M76.9661 370.555C77.5821 370.555 78.0815 370.056 78.0815 369.441C78.0815 368.825 77.5821 368.326 76.9661 368.326C76.3501 368.326 75.8507 368.825 75.8507 369.441C75.8507 370.056 76.3501 370.555 76.9661 370.555Z" fill="white"/>
<path d="M75.5682 381.641C76.1842 381.641 76.6835 381.142 76.6835 380.527C76.6835 379.911 76.1842 379.412 75.5682 379.412C74.9522 379.412 74.4528 379.911 74.4528 380.527C74.4528 381.142 74.9522 381.641 75.5682 381.641Z" fill="white"/>
<path d="M71.4488 392.014C72.0436 392.014 72.5344 391.523 72.5344 390.929C72.5344 390.335 72.0436 389.844 71.4488 389.844C70.8539 389.844 70.3631 390.335 70.3631 390.929C70.3631 391.523 70.8539 392.014 71.4488 392.014Z" fill="white"/>
<path d="M64.8754 401.049C65.4703 401.049 65.961 400.559 65.961 399.964C65.961 399.37 65.4703 398.879 64.8754 398.879C64.2806 398.879 63.7898 399.37 63.7898 399.964C63.7898 400.559 64.2806 401.049 64.8754 401.049Z" fill="white"/>
<path d="M56.2647 408.182C56.8595 408.182 57.3503 407.692 57.3503 407.098C57.3503 406.503 56.8595 406.013 56.2647 406.013C55.6698 406.013 55.179 406.503 55.179 407.098C55.179 407.692 55.6698 408.182 56.2647 408.182Z" fill="white"/>
<path d="M46.1521 412.938C46.747 412.938 47.2378 412.447 47.2378 411.853C47.2378 411.258 46.747 410.768 46.1521 410.768C45.5573 410.768 45.0665 411.258 45.0665 411.853C45.0516 412.447 45.5424 412.938 46.1521 412.938Z" fill="white"/>
<path d="M35.1619 415.048C35.7779 415.048 36.2773 414.549 36.2773 413.933C36.2773 413.318 35.7779 412.819 35.1619 412.819C34.5459 412.819 34.0465 413.318 34.0465 413.933C34.0465 414.549 34.5459 415.048 35.1619 415.048Z" fill="white"/>
<path d="M23.9934 414.349C24.6094 414.349 25.1088 413.85 25.1088 413.235C25.1088 412.619 24.6094 412.12 23.9934 412.12C23.3774 412.12 22.878 412.619 22.878 413.235C22.878 413.85 23.3774 414.349 23.9934 414.349Z" fill="white"/>
<path d="M13.3602 410.902C13.9762 410.902 14.4756 410.403 14.4756 409.787C14.4756 409.172 13.9762 408.673 13.3602 408.673C12.7442 408.673 12.2449 409.172 12.2449 409.787C12.2449 410.403 12.7442 410.902 13.3602 410.902Z" fill="white"/>
<path d="M3.91666 404.928C4.54127 404.928 5.06177 404.422 5.06177 403.783C5.06177 403.144 4.55614 402.639 3.91666 402.639C3.29205 402.639 2.77155 403.144 2.77155 403.783C2.77155 404.422 3.29205 404.928 3.91666 404.928Z" fill="white"/>
<path d="M3.91684 336.286C4.57119 336.286 5.10657 335.751 5.10657 335.098C5.10657 334.444 4.57119 333.909 3.91684 333.909C3.26249 333.909 2.72711 334.444 2.72711 335.098C2.72711 335.751 3.26249 336.286 3.91684 336.286Z" fill="white"/>
<path d="M13.3601 330.298C14.0172 330.298 14.5499 329.765 14.5499 329.109C14.5499 328.452 14.0172 327.92 13.3601 327.92C12.7031 327.92 12.1704 328.452 12.1704 329.109C12.1704 329.765 12.7031 330.298 13.3601 330.298Z" fill="white"/>
<path d="M23.9935 326.835C24.6505 326.835 25.1832 326.303 25.1832 325.646C25.1832 324.99 24.6505 324.458 23.9935 324.458C23.3364 324.458 22.8037 324.99 22.8037 325.646C22.8037 326.303 23.3364 326.835 23.9935 326.835Z" fill="white"/>
<path d="M35.1619 326.107C35.8025 326.107 36.3219 325.588 36.3219 324.948C36.3219 324.308 35.8025 323.789 35.1619 323.789C34.5212 323.789 34.0019 324.308 34.0019 324.948C34.0019 325.588 34.5212 326.107 35.1619 326.107Z" fill="white"/>
<path d="M46.1521 328.202C46.7916 328.202 47.3121 327.682 47.3121 327.043C47.3121 326.404 46.7916 325.884 46.1521 325.884C45.5126 325.884 44.9921 326.404 44.9921 327.043C44.9921 327.682 45.4977 328.202 46.1521 328.202Z" fill="white"/>
<path d="M56.2649 332.973C56.9044 332.973 57.4249 332.452 57.4249 331.813C57.4249 331.174 56.9044 330.654 56.2649 330.654C55.6254 330.654 55.1049 331.174 55.1049 331.813C55.1049 332.452 55.6254 332.973 56.2649 332.973Z" fill="white"/>
<path d="M64.8754 340.061C65.5 340.061 66.0205 339.556 66.0205 338.917C66.0205 338.278 65.5149 337.772 64.8754 337.772C64.2359 337.772 63.7303 338.278 63.7303 338.917C63.7303 339.556 64.2508 340.061 64.8754 340.061Z" fill="white"/>
<path d="M71.4488 349.111C72.0734 349.111 72.5939 348.606 72.5939 347.967C72.5939 347.328 72.0882 346.823 71.4488 346.823C70.8241 346.823 70.3036 347.328 70.3036 347.967C70.3036 348.606 70.8241 349.111 71.4488 349.111Z" fill="white"/>
<path d="M75.5682 359.469C76.1842 359.469 76.6835 358.97 76.6835 358.354C76.6835 357.739 76.1842 357.24 75.5682 357.24C74.9522 357.24 74.4528 357.739 74.4528 358.354C74.4528 358.97 74.9522 359.469 75.5682 359.469Z" fill="white"/>
<path d="M85.889 371.328C86.93 371.328 87.7629 370.481 87.7629 369.455C87.7629 368.415 86.9152 367.583 85.889 367.583C84.848 367.583 84.0152 368.43 84.0152 369.455C84.0152 370.481 84.8629 371.328 85.889 371.328Z" fill="white"/>
<path d="M84.7289 382.444C85.7699 382.444 86.6027 381.597 86.6027 380.571C86.6027 379.531 85.7551 378.699 84.7289 378.699C83.6879 378.699 82.8551 379.546 82.8551 380.571C82.8402 381.611 83.6879 382.444 84.7289 382.444Z" fill="white"/>
<path d="M81.2639 393.084C82.2988 393.084 83.1377 392.245 83.1377 391.211C83.1377 390.177 82.2988 389.339 81.2639 389.339C80.229 389.339 79.3901 390.177 79.3901 391.211C79.3901 392.245 80.229 393.084 81.2639 393.084Z" fill="white"/>
<path d="M75.6723 402.773C76.7133 402.773 77.5461 401.926 77.5461 400.9C77.5461 399.86 76.6984 399.028 75.6723 399.028C74.6313 399.028 73.7984 399.875 73.7984 400.9C73.7836 401.926 74.6313 402.773 75.6723 402.773Z" fill="white"/>
<path d="M68.177 411.08C69.218 411.08 70.0508 410.233 70.0508 409.207C70.0508 408.167 69.2032 407.335 68.177 407.335C67.136 407.335 66.3032 408.182 66.3032 409.207C66.3032 410.233 67.1509 411.08 68.177 411.08Z" fill="white"/>
<path d="M59.1201 417.648C60.1611 417.648 60.994 416.801 60.994 415.776C60.994 414.736 60.1463 413.903 59.1201 413.903C58.0791 413.903 57.2463 414.75 57.2463 415.776C57.2463 416.816 58.094 417.648 59.1201 417.648Z" fill="white"/>
<path d="M48.9032 422.211C49.9443 422.211 50.7771 421.364 50.7771 420.338C50.7771 419.298 49.9294 418.466 48.9032 418.466C47.8622 418.466 47.0294 419.313 47.0294 420.338C47.0294 421.364 47.8622 422.211 48.9032 422.211Z" fill="white"/>
<path d="M37.9578 424.529C38.9988 424.529 39.8316 423.682 39.8316 422.657C39.8316 421.616 38.984 420.784 37.9578 420.784C36.9168 420.784 36.084 421.631 36.084 422.657C36.0691 423.682 36.9168 424.529 37.9578 424.529Z" fill="white"/>
<path d="M26.7595 424.559C27.8108 424.559 28.6631 423.707 28.6631 422.657C28.6631 421.606 27.8108 420.754 26.7595 420.754C25.7082 420.754 24.856 421.606 24.856 422.657C24.856 423.707 25.7082 424.559 26.7595 424.559Z" fill="white"/>
<path d="M15.8139 422.225C16.8698 422.225 17.7175 421.378 17.7175 420.323C17.7175 419.268 16.8698 418.421 15.8139 418.421C14.758 418.421 13.9103 419.268 13.9103 420.323C13.9103 421.378 14.758 422.225 15.8139 422.225Z" fill="white"/>
<path d="M5.58236 417.678C6.63825 417.678 7.48593 416.831 7.48593 415.776C7.48593 414.721 6.63825 413.874 5.58236 413.874C4.52648 413.874 3.6788 414.721 3.6788 415.776C3.6788 416.831 4.54135 417.678 5.58236 417.678Z" fill="white"/>
<path d="M5.58234 325.096C6.68284 325.096 7.56026 324.205 7.56026 323.12C7.56026 322.035 6.66797 321.144 5.58234 321.144C4.49671 321.144 3.60442 322.035 3.60442 323.12C3.60442 324.205 4.49671 325.096 5.58234 325.096Z" fill="white"/>
<path d="M15.8141 320.549C16.9146 320.549 17.792 319.657 17.792 318.573C17.792 317.473 16.8997 316.596 15.8141 316.596C14.7136 316.596 13.8362 317.488 13.8362 318.573C13.8362 319.657 14.7284 320.549 15.8141 320.549Z" fill="white"/>
<path d="M26.7595 318.186C27.8354 318.186 28.7077 317.315 28.7077 316.24C28.7077 315.165 27.8354 314.293 26.7595 314.293C25.6835 314.293 24.8113 315.165 24.8113 316.24C24.8113 317.315 25.6835 318.186 26.7595 318.186Z" fill="white"/>
<path d="M37.9579 318.186C39.0338 318.186 39.906 317.315 39.906 316.24C39.906 315.165 39.0338 314.293 37.9579 314.293C36.8819 314.293 36.0097 315.165 36.0097 316.24C36.0097 317.315 36.8819 318.186 37.9579 318.186Z" fill="white"/>
<path d="M48.9034 320.519C49.9891 320.519 50.8516 319.643 50.8516 318.573C50.8516 317.488 49.9742 316.626 48.9034 316.626C47.8327 316.626 46.9552 317.503 46.9552 318.573C46.9552 319.643 47.8178 320.519 48.9034 320.519Z" fill="white"/>
<path d="M59.1201 325.037C60.1908 325.037 61.0534 324.175 61.0534 323.105C61.0534 322.035 60.1908 321.173 59.1201 321.173C58.0493 321.173 57.1868 322.035 57.1868 323.105C57.2016 324.175 58.0642 325.037 59.1201 325.037Z" fill="white"/>
<path d="M68.177 331.62C69.2477 331.62 70.1103 330.758 70.1103 329.688C70.1103 328.618 69.2477 327.756 68.177 327.756C67.1062 327.756 66.2436 328.618 66.2436 329.688C66.2585 330.758 67.1211 331.62 68.177 331.62Z" fill="white"/>
<path d="M75.6723 339.927C76.7431 339.927 77.6056 339.065 77.6056 337.995C77.6056 336.925 76.7431 336.063 75.6723 336.063C74.6016 336.063 73.739 336.925 73.739 337.995C73.739 339.065 74.6016 339.927 75.6723 339.927Z" fill="white"/>
<path d="M81.2639 349.587C82.3152 349.587 83.1674 348.735 83.1674 347.684C83.1674 346.634 82.3152 345.782 81.2639 345.782C80.2125 345.782 79.3603 346.634 79.3603 347.684C79.3603 348.735 80.2125 349.587 81.2639 349.587Z" fill="white"/>
<path d="M84.729 360.227C85.7803 360.227 86.6326 359.376 86.6326 358.325C86.6326 357.274 85.7803 356.423 84.729 356.423C83.6777 356.423 82.8254 357.274 82.8254 358.325C82.8254 359.376 83.6777 360.227 84.729 360.227Z" fill="white"/>
<path d="M94.8119 372.115C96.2842 372.115 97.4888 370.927 97.4888 369.441C97.4888 367.969 96.2991 366.766 94.8119 366.766C93.3397 366.766 92.1351 367.954 92.1351 369.441C92.1499 370.927 93.3397 372.115 94.8119 372.115Z" fill="white"/>
<path d="M93.8156 383.261C95.294 383.261 96.4925 382.063 96.4925 380.586C96.4925 379.109 95.294 377.911 93.8156 377.911C92.3372 377.911 91.1387 379.109 91.1387 380.586C91.1387 382.063 92.3372 383.261 93.8156 383.261Z" fill="white"/>
<path d="M90.8413 394.05C92.3197 394.05 93.5182 392.852 93.5182 391.375C93.5182 389.897 92.3197 388.7 90.8413 388.7C89.3629 388.7 88.1644 389.897 88.1644 391.375C88.1644 392.852 89.3629 394.05 90.8413 394.05Z" fill="white"/>
<path d="M85.9782 404.125C87.4505 404.125 88.6551 402.936 88.6551 401.45C88.6551 399.979 87.4654 398.775 85.9782 398.775C84.4911 398.775 83.3014 399.964 83.3014 401.45C83.3014 402.936 84.506 404.125 85.9782 404.125Z" fill="white"/>
<path d="M79.3902 413.176C80.8625 413.176 82.0671 411.987 82.0671 410.501C82.0671 409.015 80.8773 407.826 79.3902 407.826C77.903 407.826 76.7133 409.015 76.7133 410.501C76.7133 411.987 77.9179 413.176 79.3902 413.176Z" fill="white"/>
<path d="M71.2999 420.918C72.7783 420.918 73.9767 419.72 73.9767 418.243C73.9767 416.765 72.7783 415.568 71.2999 415.568C69.8215 415.568 68.623 416.765 68.623 418.243C68.623 419.72 69.8215 420.918 71.2999 420.918Z" fill="white"/>
<path d="M61.9605 427.085C63.4328 427.085 64.6374 425.896 64.6374 424.41C64.6374 422.924 63.4477 421.735 61.9605 421.735C60.4882 421.735 59.2836 422.924 59.2836 424.41C59.2836 425.896 60.4734 427.085 61.9605 427.085Z" fill="white"/>
<path d="M51.6546 431.469C53.1268 431.469 54.3314 430.28 54.3314 428.794C54.3314 427.323 53.1417 426.119 51.6546 426.119C50.1823 426.119 48.9777 427.308 48.9777 428.794C48.9925 430.28 50.1823 431.469 51.6546 431.469Z" fill="white"/>
<path d="M40.7389 433.965C42.2112 433.965 43.4158 432.776 43.4158 431.29C43.4158 429.819 42.2261 428.615 40.7389 428.615C39.2666 428.615 38.062 429.804 38.062 431.29C38.0769 432.776 39.2666 433.965 40.7389 433.965Z" fill="white"/>
<path d="M29.5555 434.471C31.0278 434.471 32.2324 433.282 32.2324 431.796C32.2324 430.31 31.0426 429.121 29.5555 429.121C28.0832 429.121 26.8786 430.31 26.8786 431.796C26.8786 433.282 28.0832 434.471 29.5555 434.471Z" fill="white"/>
<path d="M18.461 432.985C19.9482 432.985 21.1528 431.781 21.1528 430.295C21.1528 428.809 19.9482 427.605 18.461 427.605C16.9739 427.605 15.7693 428.809 15.7693 430.295C15.7693 431.781 16.9739 432.985 18.461 432.985Z" fill="white"/>
<path d="M7.8132 429.537C9.30036 429.537 10.505 428.333 10.505 426.847C10.505 425.361 9.30036 424.157 7.8132 424.157C6.32604 424.157 5.12144 425.361 5.12144 426.847C5.10657 428.333 6.32604 429.537 7.8132 429.537Z" fill="white"/>
<path d="M-2.04685 424.232C-0.559685 424.232 0.644914 423.028 0.644914 421.542C0.644914 420.056 -0.559685 418.852 -2.04685 418.852C-3.53401 418.852 -4.7386 420.056 -4.7386 421.542C-4.75348 423.028 -3.53401 424.232 -2.04685 424.232Z" fill="white"/>
<path d="M-2.04675 320.118C-0.519064 320.118 0.719368 318.88 0.719368 317.354C0.719368 315.827 -0.519064 314.59 -2.04675 314.59C-3.57443 314.59 -4.81287 315.827 -4.81287 317.354C-4.81287 318.88 -3.57443 320.118 -2.04675 320.118Z" fill="white"/>
<path d="M7.81309 314.828C9.34487 314.828 10.5792 313.595 10.5792 312.064C10.5792 310.533 9.34487 309.3 7.81309 309.3C6.28132 309.3 5.04698 310.533 5.04698 312.064C5.0321 313.58 6.28132 314.828 7.81309 314.828Z" fill="white"/>
<path d="M18.4613 311.35C19.9807 311.35 21.2125 310.12 21.2125 308.601C21.2125 307.083 19.9807 305.852 18.4613 305.852C16.9418 305.852 15.71 307.083 15.71 308.601C15.71 310.12 16.9418 311.35 18.4613 311.35Z" fill="white"/>
<path d="M29.5555 309.85C31.0749 309.85 32.3067 308.619 32.3067 307.1C32.3067 305.582 31.0749 304.351 29.5555 304.351C28.036 304.351 26.8042 305.582 26.8042 307.1C26.8042 308.619 28.036 309.85 29.5555 309.85Z" fill="white"/>
<path d="M40.7389 310.34C42.2584 310.34 43.4902 309.109 43.4902 307.591C43.4902 306.072 42.2584 304.841 40.7389 304.841C39.2194 304.841 37.9877 306.072 37.9877 307.591C37.9877 309.109 39.2194 310.34 40.7389 310.34Z" fill="white"/>
<path d="M51.6545 312.836C53.174 312.836 54.4058 311.605 54.4058 310.087C54.4058 308.569 53.174 307.338 51.6545 307.338C50.135 307.338 48.9033 308.569 48.9033 310.087C48.9033 311.605 50.135 312.836 51.6545 312.836Z" fill="white"/>
<path d="M61.9607 317.206C63.4627 317.206 64.6822 315.987 64.6822 314.486C64.6822 312.985 63.4627 311.767 61.9607 311.767C60.4587 311.767 59.2392 312.985 59.2392 314.486C59.2392 315.987 60.4587 317.206 61.9607 317.206Z" fill="white"/>
<path d="M71.2999 323.373C72.802 323.373 74.0214 322.154 74.0214 320.653C74.0214 319.152 72.802 317.934 71.2999 317.934C69.7979 317.934 68.5784 319.152 68.5784 320.653C68.5784 322.154 69.7979 323.373 71.2999 323.373Z" fill="white"/>
<path d="M79.3902 331.07C80.8774 331.07 82.082 329.867 82.082 328.381C82.082 326.895 80.8774 325.691 79.3902 325.691C77.9031 325.691 76.6985 326.895 76.6985 328.381C76.6985 329.867 77.9031 331.07 79.3902 331.07Z" fill="white"/>
<path d="M85.9782 340.12C87.4648 340.12 88.67 338.916 88.67 337.43C88.67 335.945 87.4648 334.741 85.9782 334.741C84.4916 334.741 83.2865 335.945 83.2865 337.43C83.2865 338.916 84.4916 340.12 85.9782 340.12Z" fill="white"/>
<path d="M90.8411 350.211C92.3283 350.211 93.5329 349.007 93.5329 347.521C93.5329 346.035 92.3283 344.831 90.8411 344.831C89.354 344.831 88.1494 346.035 88.1494 347.521C88.1345 349.007 89.354 350.211 90.8411 350.211Z" fill="white"/>
<path d="M93.8156 360.985C95.3022 360.985 96.5073 359.78 96.5073 358.295C96.5073 356.809 95.3022 355.605 93.8156 355.605C92.329 355.605 91.1238 356.809 91.1238 358.295C91.1238 359.78 92.329 360.985 93.8156 360.985Z" fill="white"/>
<path d="M103.735 372.16C105.237 372.16 106.456 370.942 106.456 369.441C106.456 367.94 105.237 366.721 103.735 366.721C102.233 366.721 101.013 367.94 101.013 369.441C101.013 370.942 102.233 372.16 103.735 372.16Z" fill="white"/>
<path d="M102.858 383.32C104.36 383.32 105.579 382.102 105.579 380.601C105.579 379.1 104.36 377.881 102.858 377.881C101.356 377.881 100.136 379.1 100.136 380.601C100.136 382.102 101.356 383.32 102.858 383.32Z" fill="white"/>
<path d="M100.255 394.213C101.757 394.213 102.977 392.995 102.977 391.494C102.977 389.993 101.757 388.774 100.255 388.774C98.7531 388.774 97.5336 389.993 97.5336 391.494C97.5336 392.995 98.7382 394.213 100.255 394.213Z" fill="white"/>
<path d="M95.957 404.556C97.4591 404.556 98.6785 403.338 98.6785 401.837C98.6785 400.336 97.4591 399.117 95.957 399.117C94.455 399.117 93.2355 400.336 93.2355 401.837C93.2355 403.338 94.455 404.556 95.957 404.556Z" fill="white"/>
<path d="M90.1125 414.126C91.632 414.126 92.8638 412.895 92.8638 411.377C92.8638 409.859 91.632 408.628 90.1125 408.628C88.5931 408.628 87.3613 409.859 87.3613 411.377C87.3613 412.895 88.5931 414.126 90.1125 414.126Z" fill="white"/>
<path d="M82.8402 422.627C84.3597 422.627 85.5915 421.396 85.5915 419.878C85.5915 418.359 84.3597 417.128 82.8402 417.128C81.3208 417.128 80.089 418.359 80.089 419.878C80.089 421.396 81.3208 422.627 82.8402 422.627Z" fill="white"/>
<path d="M74.3188 429.893C75.8358 429.893 77.0701 428.66 77.0701 427.144C77.0701 425.628 75.8358 424.395 74.3188 424.395C72.8019 424.395 71.5676 425.628 71.5676 427.144C71.5676 428.675 72.8019 429.893 74.3188 429.893Z" fill="white"/>
<path d="M64.7713 435.719C66.2744 435.719 67.4928 434.501 67.4928 432.999C67.4928 431.497 66.2744 430.28 64.7713 430.28C63.2683 430.28 62.0498 431.497 62.0498 432.999C62.0498 434.501 63.2683 435.719 64.7713 435.719Z" fill="white"/>
<path d="M54.4207 439.999C55.9228 439.999 57.1422 438.78 57.1422 437.279C57.1422 435.778 55.9228 434.56 54.4207 434.56C52.9187 434.56 51.6992 435.778 51.6992 437.279C51.6992 438.78 52.9187 439.999 54.4207 439.999Z" fill="white"/>
<path d="M43.5198 442.614C45.0218 442.614 46.2413 441.396 46.2413 439.895C46.2413 438.394 45.0218 437.175 43.5198 437.175C42.0177 437.175 40.7982 438.394 40.7982 439.895C40.7982 441.396 42.0177 442.614 43.5198 442.614Z" fill="white"/>
<path d="M32.3512 443.491C33.8533 443.491 35.0727 442.273 35.0727 440.772C35.0727 439.271 33.8533 438.052 32.3512 438.052C30.8492 438.052 29.6297 439.271 29.6297 440.772C29.6297 442.273 30.8492 443.491 32.3512 443.491Z" fill="white"/>
<path d="M21.1976 442.585C22.6842 442.585 23.8893 441.38 23.8893 439.895C23.8893 438.409 22.6842 437.205 21.1976 437.205C19.7109 437.205 18.5058 438.409 18.5058 439.895C18.5058 441.38 19.7109 442.585 21.1976 442.585Z" fill="white"/>
<path d="M10.2966 439.984C11.7837 439.984 12.9883 438.78 12.9883 437.294C12.9883 435.808 11.7837 434.604 10.2966 434.604C8.80943 434.604 7.60483 435.808 7.60483 437.294C7.60483 438.78 8.80943 439.984 10.2966 439.984Z" fill="white"/>
<path d="M-0.0540044 435.674C1.4244 435.674 2.62288 434.476 2.62288 432.999C2.62288 431.522 1.4244 430.324 -0.0540044 430.324C-1.53241 430.324 -2.7309 431.522 -2.7309 432.999C-2.7309 434.476 -1.53241 435.674 -0.0540044 435.674Z" fill="white"/>
<path d="M-0.0539312 308.408C1.344 308.408 2.47424 307.279 2.47424 305.882C2.47424 304.485 1.344 303.355 -0.0539312 303.355C-1.45186 303.355 -2.58211 304.485 -2.58211 305.882C-2.56724 307.279 -1.43699 308.408 -0.0539312 308.408Z" fill="white"/>
<path d="M10.2966 304.128C11.6946 304.128 12.8248 302.999 12.8248 301.602C12.8248 300.205 11.6946 299.076 10.2966 299.076C8.89871 299.076 7.76846 300.205 7.76846 301.602C7.78333 302.999 8.89871 304.128 10.2966 304.128Z" fill="white"/>
<path d="M21.1975 301.542C22.6103 301.542 23.7405 300.398 23.7405 299.001C23.7405 297.589 22.5954 296.46 21.1975 296.46C19.7847 296.46 18.6545 297.604 18.6545 299.001C18.6396 300.398 19.7847 301.542 21.1975 301.542Z" fill="white"/>
<path d="M32.3513 300.651C33.7558 300.651 34.8943 299.513 34.8943 298.11C34.8943 296.706 33.7558 295.568 32.3513 295.568C30.9468 295.568 29.8083 296.706 29.8083 298.11C29.8083 299.513 30.9468 300.651 32.3513 300.651Z" fill="white"/>
<path d="M43.5199 301.557C44.9476 301.557 46.0927 300.413 46.0927 298.986C46.0927 297.56 44.9476 296.416 43.5199 296.416C42.0922 296.416 40.9471 297.56 40.9471 298.986C40.9471 300.413 42.1071 301.557 43.5199 301.557Z" fill="white"/>
<path d="M54.4208 304.202C55.8485 304.202 57.0233 303.043 57.0233 301.602C57.0233 300.175 55.8634 299.001 54.4208 299.001C52.9783 299.001 51.8183 300.16 51.8183 301.602C51.8183 303.043 52.9783 304.202 54.4208 304.202Z" fill="white"/>
<path d="M64.7714 308.482C66.1991 308.482 67.374 307.323 67.374 305.882C67.374 304.455 66.214 303.281 64.7714 303.281C63.3289 303.281 62.1689 304.44 62.1689 305.882C62.1689 307.323 63.3289 308.482 64.7714 308.482Z" fill="white"/>
<path d="M74.3189 314.353C75.7614 314.353 76.9363 313.179 76.9363 311.737C76.9363 310.296 75.7614 309.122 74.3189 309.122C72.8763 309.122 71.7015 310.296 71.7015 311.737C71.7015 313.179 72.8615 314.353 74.3189 314.353Z" fill="white"/>
<path d="M82.8403 321.649C84.2977 321.649 85.4874 320.46 85.4874 319.004C85.4874 317.547 84.2977 316.358 82.8403 316.358C81.3829 316.358 80.1931 317.547 80.1931 319.004C80.1931 320.46 81.368 321.649 82.8403 321.649Z" fill="white"/>
<path d="M90.1126 330.164C91.57 330.164 92.7598 328.975 92.7598 327.519C92.7598 326.062 91.57 324.874 90.1126 324.874C88.6552 324.874 87.4655 326.062 87.4655 327.519C87.4655 328.975 88.6403 330.164 90.1126 330.164Z" fill="white"/>
<path d="M95.9571 339.734C97.4294 339.734 98.634 338.545 98.634 337.059C98.634 335.588 97.4442 334.384 95.9571 334.384C94.4699 334.384 93.2802 335.573 93.2802 337.059C93.2951 338.53 94.4848 339.734 95.9571 339.734Z" fill="white"/>
<path d="M100.255 350.092C101.742 350.092 102.947 348.888 102.947 347.402C102.947 345.916 101.742 344.712 100.255 344.712C98.7678 344.712 97.5632 345.916 97.5632 347.402C97.5483 348.888 98.7529 350.092 100.255 350.092Z" fill="white"/>
<path d="M102.857 360.985C104.345 360.985 105.549 359.781 105.549 358.295C105.549 356.809 104.345 355.605 102.857 355.605C101.37 355.605 100.166 356.809 100.166 358.295C100.166 359.781 101.37 360.985 102.857 360.985Z" fill="white"/>
<path d="M112.658 369.797C112.851 369.797 113 369.649 113 369.456C113 369.262 112.851 369.114 112.658 369.114C112.465 369.114 112.316 369.262 112.316 369.456C112.316 369.634 112.479 369.797 112.658 369.797Z" fill="white"/>
<path d="M111.885 380.987C112.093 380.987 112.256 380.824 112.256 380.616C112.256 380.408 112.093 380.244 111.885 380.244C111.676 380.244 111.513 380.408 111.513 380.616C111.513 380.824 111.676 380.987 111.885 380.987Z" fill="white"/>
<path d="M109.55 391.94C109.755 391.94 109.921 391.773 109.921 391.568C109.921 391.363 109.755 391.197 109.55 391.197C109.344 391.197 109.178 391.363 109.178 391.568C109.178 391.773 109.344 391.94 109.55 391.94Z" fill="white"/>
<path d="M105.728 402.49C105.95 402.49 106.129 402.311 106.129 402.089C106.129 401.868 105.95 401.688 105.728 401.688C105.506 401.688 105.326 401.868 105.326 402.089C105.326 402.311 105.506 402.49 105.728 402.49Z" fill="white"/>
<path d="M100.463 412.373C100.685 412.373 100.865 412.193 100.865 411.972C100.865 411.75 100.685 411.57 100.463 411.57C100.241 411.57 100.062 411.75 100.062 411.972C100.062 412.193 100.241 412.373 100.463 412.373Z" fill="white"/>
<path d="M93.875 421.423C94.0968 421.423 94.2765 421.243 94.2765 421.022C94.2765 420.8 94.0968 420.621 93.875 420.621C93.6532 420.621 93.4735 420.8 93.4735 421.022C93.4735 421.243 93.6532 421.423 93.875 421.423Z" fill="white"/>
<path d="M86.0971 429.477C86.3189 429.477 86.4987 429.298 86.4987 429.076C86.4987 428.854 86.3189 428.675 86.0971 428.675C85.8754 428.675 85.6956 428.854 85.6956 429.076C85.6956 429.298 85.8754 429.477 86.0971 429.477Z" fill="white"/>
<path d="M77.2635 436.373C77.4852 436.373 77.665 436.193 77.665 435.972C77.665 435.75 77.4852 435.57 77.2635 435.57C77.0417 435.57 76.8619 435.75 76.8619 435.972C76.8619 436.193 77.0417 436.373 77.2635 436.373Z" fill="white"/>
<path d="M67.5672 441.975C67.7889 441.975 67.9687 441.796 67.9687 441.574C67.9687 441.352 67.7889 441.173 67.5672 441.173C67.3454 441.173 67.1656 441.352 67.1656 441.574C67.1656 441.796 67.3454 441.975 67.5672 441.975Z" fill="white"/>
<path d="M57.172 446.166C57.3937 446.166 57.5735 445.986 57.5735 445.765C57.5735 445.543 57.3937 445.363 57.172 445.363C56.9502 445.363 56.7704 445.543 56.7704 445.765C56.7704 445.986 56.9502 446.166 57.172 446.166Z" fill="white"/>
<path d="M46.3007 448.841C46.5089 448.841 46.6725 448.677 46.6725 448.469C46.6725 448.261 46.5089 448.098 46.3007 448.098C46.0925 448.098 45.929 448.261 45.929 448.469C45.929 448.677 46.0925 448.841 46.3007 448.841Z" fill="white"/>
<path d="M35.1619 450.015C35.3701 450.015 35.5337 449.851 35.5337 449.643C35.5337 449.435 35.3701 449.271 35.1619 449.271C34.9537 449.271 34.7901 449.435 34.7901 449.643C34.7901 449.851 34.9537 450.015 35.1619 450.015Z" fill="white"/>
<path d="M23.9636 449.599C24.1569 449.599 24.3056 449.45 24.3056 449.257C24.3056 449.064 24.1569 448.915 23.9636 448.915C23.7702 448.915 23.6215 449.064 23.6215 449.257C23.6215 449.45 23.7702 449.599 23.9636 449.599Z" fill="white"/>
<path d="M12.9289 447.652C13.1222 447.652 13.2709 447.503 13.2709 447.31C13.2709 447.117 13.1222 446.968 12.9289 446.968C12.7356 446.968 12.5868 447.117 12.5868 447.31C12.5868 447.503 12.7356 447.652 12.9289 447.652Z" fill="white"/>
<path d="M2.28095 444.189C2.46986 444.189 2.623 444.036 2.623 443.848C2.623 443.659 2.46986 443.506 2.28095 443.506C2.09204 443.506 1.9389 443.659 1.9389 443.848C1.9389 444.036 2.09204 444.189 2.28095 444.189Z" fill="white"/>
<path d="M2.2808 295.286C2.41464 295.286 2.53361 295.182 2.53361 295.033C2.53361 294.9 2.42952 294.781 2.2808 294.781C2.13209 294.781 2.02798 294.885 2.02798 295.033C2.02798 295.182 2.13209 295.286 2.2808 295.286Z" fill="white"/>
<path d="M12.929 291.838C13.0686 291.838 13.1818 291.725 13.1818 291.586C13.1818 291.446 13.0686 291.333 12.929 291.333C12.7893 291.333 12.6761 291.446 12.6761 291.586C12.6761 291.725 12.7893 291.838 12.929 291.838Z" fill="white"/>
<path d="M23.9636 289.891C24.1033 289.891 24.2165 289.778 24.2165 289.639C24.2165 289.499 24.1033 289.386 23.9636 289.386C23.824 289.386 23.7108 289.499 23.7108 289.639C23.7108 289.778 23.824 289.891 23.9636 289.891Z" fill="white"/>
<path d="M35.162 289.49C35.2959 289.49 35.4148 289.386 35.4148 289.238C35.4148 289.089 35.2959 289 35.162 289C35.0282 289 34.9092 289.104 34.9092 289.253C34.9092 289.401 35.0282 289.49 35.162 289.49Z" fill="white"/>
<path d="M46.3008 290.694C46.4495 290.694 46.5685 290.575 46.5685 290.427C46.5685 290.278 46.4495 290.159 46.3008 290.159C46.1521 290.159 46.0331 290.278 46.0331 290.427C46.0331 290.56 46.1521 290.694 46.3008 290.694Z" fill="white"/>
<path d="M57.172 293.399C57.3207 293.399 57.4397 293.28 57.4397 293.131C57.4397 292.983 57.3207 292.864 57.172 292.864C57.0233 292.864 56.9043 292.983 56.9043 293.131C56.9043 293.28 57.0233 293.399 57.172 293.399Z" fill="white"/>
<path d="M67.5673 297.59C67.7151 297.59 67.8349 297.47 67.8349 297.322C67.8349 297.174 67.7151 297.055 67.5673 297.055C67.4194 297.055 67.2996 297.174 67.2996 297.322C67.2996 297.47 67.4194 297.59 67.5673 297.59Z" fill="white"/>
<path d="M77.2634 303.222C77.427 303.222 77.5609 303.088 77.5609 302.925C77.5609 302.761 77.427 302.627 77.2634 302.627C77.0999 302.627 76.966 302.761 76.966 302.925C76.966 303.088 77.0999 303.222 77.2634 303.222Z" fill="white"/>
<path d="M86.0972 310.102C86.2608 310.102 86.3946 309.968 86.3946 309.805C86.3946 309.642 86.2608 309.508 86.0972 309.508C85.9336 309.508 85.7997 309.642 85.7997 309.805C85.7997 309.968 85.9336 310.102 86.0972 310.102Z" fill="white"/>
<path d="M93.875 318.186C94.0534 318.186 94.2021 318.037 94.2021 317.859C94.2021 317.681 94.0534 317.532 93.875 317.532C93.6965 317.532 93.5478 317.681 93.5478 317.859C93.5478 318.037 93.6965 318.186 93.875 318.186Z" fill="white"/>
<path d="M100.463 327.236C100.642 327.236 100.79 327.088 100.79 326.909C100.79 326.731 100.642 326.583 100.463 326.583C100.285 326.583 100.136 326.731 100.136 326.909C100.136 327.103 100.285 327.236 100.463 327.236Z" fill="white"/>
<path d="M105.728 337.133C105.908 337.133 106.055 336.987 106.055 336.806C106.055 336.626 105.908 336.479 105.728 336.479C105.547 336.479 105.4 336.626 105.4 336.806C105.4 336.987 105.547 337.133 105.728 337.133Z" fill="white"/>
<path d="M109.55 347.67C109.743 347.67 109.892 347.521 109.892 347.328C109.892 347.135 109.743 346.986 109.55 346.986C109.356 346.986 109.208 347.135 109.208 347.328C109.208 347.521 109.356 347.67 109.55 347.67Z" fill="white"/>
<path d="M111.885 358.622C112.078 358.622 112.227 358.473 112.227 358.28C112.227 358.087 112.078 357.938 111.885 357.938C111.691 357.938 111.543 358.087 111.543 358.28C111.543 358.473 111.691 358.622 111.885 358.622Z" fill="white"/>
</g>
<circle opacity="0.8" cx="1236.5" cy="89.5" r="1.5" transform="rotate(-90 1236.5 89.5)" fill="white"/>
<circle opacity="0.8" cx="1236.5" cy="76.5" r="1.5" transform="rotate(-90 1236.5 76.5)" fill="white"/>
<circle opacity="0.8" cx="1236.5" cy="63.5" r="1.5" transform="rotate(-90 1236.5 63.5)" fill="white"/>
<circle opacity="0.8" cx="1236.5" cy="50.5" r="1.5" transform="rotate(-90 1236.5 50.5)" fill="white"/>
<circle opacity="0.8" cx="1236.5" cy="37.5" r="1.5" transform="rotate(-90 1236.5 37.5)" fill="white"/>
<circle opacity="0.8" cx="1249.5" cy="89.5005" r="1.5" transform="rotate(-90 1249.5 89.5005)" fill="white"/>
<circle opacity="0.8" cx="1249.5" cy="76.5" r="1.5" transform="rotate(-90 1249.5 76.5)" fill="white"/>
<circle opacity="0.8" cx="1249.5" cy="63.5" r="1.5" transform="rotate(-90 1249.5 63.5)" fill="white"/>
<circle opacity="0.8" cx="1249.5" cy="50.5" r="1.5" transform="rotate(-90 1249.5 50.5)" fill="white"/>
<circle opacity="0.8" cx="1249.5" cy="37.5" r="1.5" transform="rotate(-90 1249.5 37.5)" fill="white"/>
<circle opacity="0.8" cx="1262.5" cy="89.5005" r="1.5" transform="rotate(-90 1262.5 89.5005)" fill="white"/>
<circle opacity="0.8" cx="1262.5" cy="76.5" r="1.5" transform="rotate(-90 1262.5 76.5)" fill="white"/>
<circle opacity="0.8" cx="1262.5" cy="63.5" r="1.5" transform="rotate(-90 1262.5 63.5)" fill="white"/>
<circle opacity="0.8" cx="1262.5" cy="50.5" r="1.5" transform="rotate(-90 1262.5 50.5)" fill="white"/>
<circle opacity="0.8" cx="1262.5" cy="37.5" r="1.5" transform="rotate(-90 1262.5 37.5)" fill="white"/>
<circle opacity="0.8" cx="1275.5" cy="89.5005" r="1.5" transform="rotate(-90 1275.5 89.5005)" fill="white"/>
<circle opacity="0.8" cx="1275.5" cy="76.5" r="1.5" transform="rotate(-90 1275.5 76.5)" fill="white"/>
<circle opacity="0.8" cx="1275.5" cy="63.5" r="1.5" transform="rotate(-90 1275.5 63.5)" fill="white"/>
<circle opacity="0.8" cx="1275.5" cy="50.5" r="1.5" transform="rotate(-90 1275.5 50.5)" fill="white"/>
<circle opacity="0.8" cx="1275.5" cy="37.5" r="1.5" transform="rotate(-90 1275.5 37.5)" fill="white"/>
<circle opacity="0.8" cx="1288.5" cy="89.5005" r="1.5" transform="rotate(-90 1288.5 89.5005)" fill="white"/>
<circle opacity="0.8" cx="1288.5" cy="76.5" r="1.5" transform="rotate(-90 1288.5 76.5)" fill="white"/>
<circle opacity="0.8" cx="1288.5" cy="63.5" r="1.5" transform="rotate(-90 1288.5 63.5)" fill="white"/>
<circle opacity="0.8" cx="1288.5" cy="50.5" r="1.5" transform="rotate(-90 1288.5 50.5)" fill="white"/>
<circle opacity="0.8" cx="1288.5" cy="37.5" r="1.5" transform="rotate(-90 1288.5 37.5)" fill="white"/>
<circle opacity="0.8" cx="1301.5" cy="89.5005" r="1.5" transform="rotate(-90 1301.5 89.5005)" fill="white"/>
<circle opacity="0.8" cx="1301.5" cy="76.5" r="1.5" transform="rotate(-90 1301.5 76.5)" fill="white"/>
<circle opacity="0.8" cx="1301.5" cy="63.5" r="1.5" transform="rotate(-90 1301.5 63.5)" fill="white"/>
<circle opacity="0.8" cx="1301.5" cy="50.5" r="1.5" transform="rotate(-90 1301.5 50.5)" fill="white"/>
<circle opacity="0.8" cx="1301.5" cy="37.5" r="1.5" transform="rotate(-90 1301.5 37.5)" fill="white"/>
<circle opacity="0.8" cx="1314.5" cy="89.5005" r="1.5" transform="rotate(-90 1314.5 89.5005)" fill="white"/>
<circle opacity="0.8" cx="1314.5" cy="76.5" r="1.5" transform="rotate(-90 1314.5 76.5)" fill="white"/>
<circle opacity="0.8" cx="1314.5" cy="63.5" r="1.5" transform="rotate(-90 1314.5 63.5)" fill="white"/>
<circle opacity="0.8" cx="1314.5" cy="50.5" r="1.5" transform="rotate(-90 1314.5 50.5)" fill="white"/>
<circle opacity="0.8" cx="1314.5" cy="37.5" r="1.5" transform="rotate(-90 1314.5 37.5)" fill="white"/>
<circle opacity="0.8" cx="1327.5" cy="89.5005" r="1.5" transform="rotate(-90 1327.5 89.5005)" fill="white"/>
<circle opacity="0.8" cx="1327.5" cy="76.5" r="1.5" transform="rotate(-90 1327.5 76.5)" fill="white"/>
<circle opacity="0.8" cx="1327.5" cy="63.5" r="1.5" transform="rotate(-90 1327.5 63.5)" fill="white"/>
<circle opacity="0.8" cx="1327.5" cy="50.5" r="1.5" transform="rotate(-90 1327.5 50.5)" fill="white"/>
<circle opacity="0.8" cx="1327.5" cy="37.5" r="1.5" transform="rotate(-90 1327.5 37.5)" fill="white"/>
<circle opacity="0.8" cx="1340.5" cy="89.5005" r="1.5" transform="rotate(-90 1340.5 89.5005)" fill="white"/>
<circle opacity="0.8" cx="1340.5" cy="76.5" r="1.5" transform="rotate(-90 1340.5 76.5)" fill="white"/>
<circle opacity="0.8" cx="1340.5" cy="63.5" r="1.5" transform="rotate(-90 1340.5 63.5)" fill="white"/>
<circle opacity="0.8" cx="1340.5" cy="50.5" r="1.5" transform="rotate(-90 1340.5 50.5)" fill="white"/>
<circle opacity="0.8" cx="1340.5" cy="37.5" r="1.5" transform="rotate(-90 1340.5 37.5)" fill="white"/>
<circle opacity="0.8" cx="1353.5" cy="89.5005" r="1.5" transform="rotate(-90 1353.5 89.5005)" fill="white"/>
<circle opacity="0.8" cx="1353.5" cy="76.5" r="1.5" transform="rotate(-90 1353.5 76.5)" fill="white"/>
<circle opacity="0.8" cx="1353.5" cy="63.5" r="1.5" transform="rotate(-90 1353.5 63.5)" fill="white"/>
<circle opacity="0.8" cx="1353.5" cy="50.5" r="1.5" transform="rotate(-90 1353.5 50.5)" fill="white"/>
<circle opacity="0.8" cx="1353.5" cy="37.5" r="1.5" transform="rotate(-90 1353.5 37.5)" fill="white"/>
<circle opacity="0.8" cx="1776.5" cy="282.5" r="1.5" fill="#FAE4D8"/>
<circle opacity="0.8" cx="1789.5" cy="282.5" r="1.5" fill="#FAE4D8"/>
<circle opacity="0.8" cx="1802.5" cy="282.5" r="1.5" fill="#FAE4D8"/>
<circle opacity="0.8" cx="1815.5" cy="282.5" r="1.5" fill="#FAE4D8"/>
<circle opacity="0.8" cx="1828.5" cy="282.5" r="1.5" fill="#FAE4D8"/>
<circle opacity="0.8" cx="1776.5" cy="295.5" r="1.5" fill="#FAE4D8"/>
<circle opacity="0.8" cx="1789.5" cy="295.5" r="1.5" fill="#FAE4D8"/>
<circle opacity="0.8" cx="1802.5" cy="295.5" r="1.5" fill="#FAE4D8"/>
<circle opacity="0.8" cx="1815.5" cy="295.5" r="1.5" fill="#FAE4D8"/>
<circle opacity="0.8" cx="1828.5" cy="295.5" r="1.5" fill="#FAE4D8"/>
<circle opacity="0.8" cx="1776.5" cy="308.5" r="1.5" fill="#FAE4D8"/>
<circle opacity="0.8" cx="1789.5" cy="308.5" r="1.5" fill="#FAE4D8"/>
<circle opacity="0.8" cx="1802.5" cy="308.5" r="1.5" fill="#FAE4D8"/>
<circle opacity="0.8" cx="1815.5" cy="308.5" r="1.5" fill="#FAE4D8"/>
<circle opacity="0.8" cx="1828.5" cy="308.5" r="1.5" fill="#FAE4D8"/>
<circle opacity="0.8" cx="1776.5" cy="321.5" r="1.5" fill="#FAE4D8"/>
<circle opacity="0.8" cx="1789.5" cy="321.5" r="1.5" fill="#FAE4D8"/>
<circle opacity="0.8" cx="1802.5" cy="321.5" r="1.5" fill="#FAE4D8"/>
<circle opacity="0.8" cx="1815.5" cy="321.5" r="1.5" fill="#FAE4D8"/>
<circle opacity="0.8" cx="1828.5" cy="321.5" r="1.5" fill="#FAE4D8"/>
<circle opacity="0.8" cx="1776.5" cy="334.5" r="1.5" fill="#FAE4D8"/>
<circle opacity="0.8" cx="1789.5" cy="334.5" r="1.5" fill="#FAE4D8"/>
<circle opacity="0.8" cx="1802.5" cy="334.5" r="1.5" fill="#FAE4D8"/>
<circle opacity="0.8" cx="1815.5" cy="334.5" r="1.5" fill="#FAE4D8"/>
<circle opacity="0.8" cx="1828.5" cy="334.5" r="1.5" fill="#FAE4D8"/>
<circle opacity="0.8" cx="1776.5" cy="347.5" r="1.5" fill="#FAE4D8"/>
<circle opacity="0.8" cx="1789.5" cy="347.5" r="1.5" fill="#FAE4D8"/>
<circle opacity="0.8" cx="1802.5" cy="347.5" r="1.5" fill="#FAE4D8"/>
<circle opacity="0.8" cx="1815.5" cy="347.5" r="1.5" fill="#FAE4D8"/>
<circle opacity="0.8" cx="1828.5" cy="347.5" r="1.5" fill="#FAE4D8"/>
<circle opacity="0.8" cx="1776.5" cy="360.5" r="1.5" fill="#FAE4D8"/>
<circle opacity="0.8" cx="1789.5" cy="360.5" r="1.5" fill="#FAE4D8"/>
<circle opacity="0.8" cx="1802.5" cy="360.5" r="1.5" fill="#FAE4D8"/>
<circle opacity="0.8" cx="1815.5" cy="360.5" r="1.5" fill="#FAE4D8"/>
<circle opacity="0.8" cx="1828.5" cy="360.5" r="1.5" fill="#FAE4D8"/>
<circle opacity="0.8" cx="1776.5" cy="373.5" r="1.5" fill="#FAE4D8"/>
<circle opacity="0.8" cx="1789.5" cy="373.5" r="1.5" fill="#FAE4D8"/>
<circle opacity="0.8" cx="1802.5" cy="373.5" r="1.5" fill="#FAE4D8"/>
<circle opacity="0.8" cx="1815.5" cy="373.5" r="1.5" fill="#FAE4D8"/>
<circle opacity="0.8" cx="1828.5" cy="373.5" r="1.5" fill="#FAE4D8"/>
<circle opacity="0.8" cx="1776.5" cy="386.5" r="1.5" fill="#FAE4D8"/>
<circle opacity="0.8" cx="1789.5" cy="386.5" r="1.5" fill="#FAE4D8"/>
<circle opacity="0.8" cx="1802.5" cy="386.5" r="1.5" fill="#FAE4D8"/>
<circle opacity="0.8" cx="1815.5" cy="386.5" r="1.5" fill="#FAE4D8"/>
<circle opacity="0.8" cx="1828.5" cy="386.5" r="1.5" fill="#FAE4D8"/>
<circle opacity="0.8" cx="1776.5" cy="399.5" r="1.5" fill="#FAE4D8"/>
<circle opacity="0.8" cx="1776.5" cy="413" r="1.5" fill="#FAE4D8"/>
<circle opacity="0.8" cx="1776.5" cy="425.5" r="1.5" fill="#FAE4D8"/>
<circle opacity="0.8" cx="1789.5" cy="399.5" r="1.5" fill="#FAE4D8"/>
<circle opacity="0.8" cx="1789.5" cy="413" r="1.5" fill="#FAE4D8"/>
<circle opacity="0.8" cx="1789.5" cy="425.5" r="1.5" fill="#FAE4D8"/>
<circle opacity="0.8" cx="1802.5" cy="399.5" r="1.5" fill="#FAE4D8"/>
<circle opacity="0.8" cx="1802.5" cy="413" r="1.5" fill="#FAE4D8"/>
<circle opacity="0.8" cx="1802.5" cy="425.5" r="1.5" fill="#FAE4D8"/>
<circle opacity="0.8" cx="1815.5" cy="399.5" r="1.5" fill="#FAE4D8"/>
<circle opacity="0.8" cx="1815.5" cy="413" r="1.5" fill="#FAE4D8"/>
<circle opacity="0.8" cx="1815.5" cy="425.5" r="1.5" fill="#FAE4D8"/>
<circle opacity="0.8" cx="1828.5" cy="399.5" r="1.5" fill="#FAE4D8"/>
<circle opacity="0.8" cx="1828.5" cy="413" r="1.5" fill="#FAE4D8"/>
<circle opacity="0.8" cx="1828.5" cy="425.5" r="1.5" fill="#FAE4D8"/>
</g>
<defs>
<linearGradient id="paint0_linear_400_3409" x1="201.5" y1="83" x2="652.5" y2="502" gradientUnits="userSpaceOnUse">
<stop stop-color="#FBDFD1"/>
<stop offset="1" stop-color="#FAEFE7"/>
</linearGradient>
<linearGradient id="paint1_linear_400_3409" x1="1230" y1="200" x2="885.5" y2="12.5" gradientUnits="userSpaceOnUse">
<stop stop-color="#FBDFD1"/>
<stop offset="1" stop-color="#FAEFE7"/>
</linearGradient>
</defs>
</svg>
