<svg width="16" height="22" fill="none" xmlns="http://www.w3.org/2000/svg"><path d="M10.363 10.523c-.65.652-1.445.977-2.383.977-.911 0-1.692-.325-2.343-.977-.651-.65-.977-1.432-.977-2.343 0-.938.326-1.732.977-2.383.65-.651 1.432-.977 2.343-.977.938 0 1.732.326 2.383.977.651.65.977 1.445.977 2.383 0 .911-.326 1.692-.977 2.343zm-5.078 3.008c.99-.234 1.888-.351 2.695-.351.834 0 1.745.117 2.735.351.99.235 1.888.625 2.695 1.172.833.521 1.25 1.12 1.25 1.797v1.68H1.34V16.5c0-.677.403-1.276 1.21-1.797a8.523 8.523 0 012.735-1.172z" fill="#03133D"/></svg>