<svg width="23" height="20" fill="none" xmlns="http://www.w3.org/2000/svg"><path d="M16.944 7.5h4.98c.294 0 .538.114.733.342a.937.937 0 01.293.683v.293l-2.636 9.668c-.13.424-.391.782-.782 1.075a1.942 1.942 0 01-1.27.439H4.738c-.488 0-.911-.146-1.27-.44a2.202 2.202 0 01-.732-1.074L.1 8.818a.68.68 0 01-.05-.293c0-.26.098-.488.294-.683.228-.228.472-.342.732-.342h5.03l4.54-6.836a.94.94 0 01.83-.44c.391 0 .684.147.88.44l4.59 6.836zM8.4 7.5h6.25l-3.125-4.59L8.4 7.5zm1.612 7.764c.423.39.911.586 1.465.586.585 0 1.074-.196 1.464-.586.424-.423.635-.928.635-1.514a1.91 1.91 0 00-.635-1.465 1.91 1.91 0 00-1.464-.635c-.554 0-1.042.212-1.465.635-.39.39-.586.88-.586 1.465 0 .586.195 1.09.586 1.514z" fill="#03133D"/></svg>