<svg width="99" height="105" fill="none" xmlns="http://www.w3.org/2000/svg"><g filter="url(#filter0_dd_239_1851)"><ellipse cx="46.83" cy="52.5" rx="31.83" ry="32.5" fill="#fff"/></g><ellipse cx="36.779" cy="22.395" rx="1.675" ry="1.711" fill="url(#paint0_linear_239_1851)"/><ellipse cx="78.325" cy="48.395" rx="1.675" ry="1.711" fill="url(#paint1_linear_239_1851)"/><ellipse cx="24.716" cy="75.763" rx="1.675" ry="1.711" fill="url(#paint2_linear_239_1851)"/><g clip-path="url(#clip0_239_1851)"><path d="M60.725 44.292l-14-7.241a.501.501 0 00-.45 0l-14 7.241a.53.53 0 00-.275.466V59.24a.53.53 0 00.275.466l14 7.241a.501.501 0 00.45 0l14-7.241A.53.53 0 0061 59.24V44.758a.53.53 0 00-.275-.466zM46.5 51.424L42.594 49.4l12.493-6.867 4.3 2.225L46.5 51.424zm-7.906-4.093l12.493-6.866 2.9 1.5-12.493 6.866-2.9-1.5zm-.594.847l3 1.552v4.118l-1.144-1.183a.487.487 0 00-.356-.149H38v-4.338zm8.5-10.086l3.487 1.804-12.493 6.866-3.875-2.004L46.5 38.092zm-13.5 7.5l4 2.069v5.372a.51.51 0 00.5.518h1.794l1.856 1.92c.194.2.513.2.706 0a.522.522 0 00.144-.368v-4.856l4 2.069V65.64l-13-6.724V45.592zm14 20.056V52.316l13-6.724v13.325l-13 6.73z" fill="#26A9E0"/></g><defs><linearGradient id="paint0_linear_239_1851" x1="35.773" y1="21.368" x2="37.832" y2="23.721" gradientUnits="userSpaceOnUse"><stop stop-color="#2197C9"/><stop offset="1" stop-color="#42C7FF"/></linearGradient><linearGradient id="paint1_linear_239_1851" x1="77.32" y1="47.368" x2="79.378" y2="49.721" gradientUnits="userSpaceOnUse"><stop stop-color="#2197C9"/><stop offset="1" stop-color="#42C7FF"/></linearGradient><linearGradient id="paint2_linear_239_1851" x1="23.711" y1="74.737" x2="25.77" y2="77.089" gradientUnits="userSpaceOnUse"><stop stop-color="#2197C9"/><stop offset="1" stop-color="#42C7FF"/></linearGradient><clipPath id="clip0_239_1851"><path fill="#fff" transform="translate(32 37)" d="M0 0h29v30H0z"/></clipPath><filter id="filter0_dd_239_1851" x="-5" y="0" width="103.66" height="105" filterUnits="userSpaceOnUse" color-interpolation-filters="sRGB"><feFlood flood-opacity="0" result="BackgroundImageFix"/><feColorMatrix in="SourceAlpha" values="0 0 0 0 0 0 0 0 0 0 0 0 0 0 0 0 0 0 127 0" result="hardAlpha"/><feOffset dx="-5" dy="-5"/><feGaussianBlur stdDeviation="7.5"/><feColorMatrix values="0 0 0 0 1 0 0 0 0 1 0 0 0 0 1 0 0 0 0.3 0"/><feBlend in2="BackgroundImageFix" result="effect1_dropShadow_239_1851"/><feColorMatrix in="SourceAlpha" values="0 0 0 0 0 0 0 0 0 0 0 0 0 0 0 0 0 0 127 0" result="hardAlpha"/><feOffset dx="5" dy="5"/><feGaussianBlur stdDeviation="7.5"/><feColorMatrix values="0 0 0 0 0.682353 0 0 0 0 0.682353 0 0 0 0 0.752941 0 0 0 0.3 0"/><feBlend in2="effect1_dropShadow_239_1851" result="effect2_dropShadow_239_1851"/><feBlend in="SourceGraphic" in2="effect2_dropShadow_239_1851" result="shape"/></filter></defs></svg>