<svg width="43" height="43" fill="none" xmlns="http://www.w3.org/2000/svg"><path d="M5.134 18.294a16.606 16.606 0 0112.84-12.996 14.075 14.075 0 013.335-3.046 13.856 13.856 0 00-7.4-2.127C6.23.125 0 6.355 0 14.04c0 2.772.812 5.356 2.21 7.523a13.88 13.88 0 012.924-3.27v.001z" fill="#26A9E0"/><path d="M24.72 5.272a16.615 16.615 0 0112.933 12.872c1.15.935 2.15 2.045 2.954 3.294a13.843 13.843 0 002.21-7.523C42.817 6.23 36.587 0 28.9 0c-2.8 0-5.407.828-7.59 2.25 1.296.816 2.45 1.84 3.41 3.022z" fill="#8BC53F"/><path d="M17.976 5.298a16.738 16.738 0 016.743-.026 14.032 14.032 0 00-3.41-3.02 14.01 14.01 0 00-3.337 3.046h.004z" fill="#009E4B"/><path d="M18.155 37.804C11.622 36.506 6.47 31.37 5.148 24.844a13.951 13.951 0 01-2.94-3.28A13.863 13.863 0 000 29.087C0 36.77 6.23 43 13.916 43c2.8 0 5.407-.823 7.59-2.246a13.97 13.97 0 01-3.35-2.95h-.001z" fill="#FFDD15"/><path d="M5.148 24.845c-.217-1.07-.33-2.18-.33-3.312 0-1.107.108-2.192.317-3.24-1.14.928-2.13 2.03-2.925 3.27a13.867 13.867 0 002.938 3.282z" fill="#5D9849"/><path d="M40.607 21.44a14.055 14.055 0 01-2.912 3.26c-1.266 6.552-6.39 11.732-12.916 13.08a14.154 14.154 0 01-3.278 2.974 13.864 13.864 0 007.395 2.124c7.685 0 13.915-6.23 13.915-13.914 0-2.774-.81-5.358-2.21-7.525l.006.001z" fill="#F3793B"/><path d="M37.653 18.145a16.661 16.661 0 01.043 6.555 13.992 13.992 0 002.912-3.26 14.021 14.021 0 00-2.955-3.295z" fill="#946A38"/><path d="M24.78 37.78a16.435 16.435 0 01-3.372.346c-1.113 0-2.2-.11-3.253-.322.95 1.156 2.08 2.15 3.35 2.95a14.033 14.033 0 003.275-2.973v-.001z" fill="#F58836"/><path d="M14.988 13.647a13.863 13.863 0 012.987-8.35 16.606 16.606 0 00-12.84 12.998 13.84 13.84 0 018.332-3.113c.453-.564.962-1.077 1.52-1.533l.001-.002z" fill="#0A7599"/><path d="M29.245 15.052a13.861 13.861 0 018.408 3.093A16.613 16.613 0 0024.72 5.272a13.845 13.845 0 013.103 8.373c.52.42.995.893 1.422 1.407z" fill="#57843C"/><path d="M21.408 11.365c2.433 0 4.666.853 6.416 2.28a13.84 13.84 0 00-3.104-8.373 16.654 16.654 0 00-3.312-.33c-1.176 0-2.325.122-3.433.355a13.86 13.86 0 00-2.987 8.35 10.117 10.117 0 016.42-2.282z" fill="#016A37"/><path d="M13.52 27.948a13.846 13.846 0 01-8.372-3.104c1.322 6.524 6.474 11.66 13.008 12.96a13.842 13.842 0 01-3.16-8.382 10.125 10.125 0 01-1.475-1.474h-.001z" fill="#A89332"/><path d="M11.24 21.533c0-2.403.834-4.612 2.228-6.352a13.83 13.83 0 00-8.333 3.117 16.723 16.723 0 00.012 6.55 13.853 13.853 0 008.374 3.105 10.131 10.131 0 01-2.28-6.416l-.001-.004z" fill="#3A6932"/><path d="M27.827 29.42c-.075 3.16-1.2 6.06-3.046 8.36a16.615 16.615 0 0012.92-13.08 13.82 13.82 0 01-8.295 3.118 10.13 10.13 0 01-1.573 1.6l-.006.002z" fill="#C05E2F"/><path d="M37.653 18.145a13.87 13.87 0 00-8.408-3.093 10.13 10.13 0 012.332 6.48c0 2.374-.814 4.56-2.177 6.287a13.868 13.868 0 008.296-3.12 16.668 16.668 0 00-.043-6.558v.004z" fill="#62461E"/><path d="M21.408 31.7c-2.432 0-4.664-.85-6.415-2.277a13.85 13.85 0 003.16 8.38 16.39 16.39 0 003.254.323c1.155 0 2.284-.118 3.372-.345 1.842-2.3 2.97-5.2 3.042-8.36a10.098 10.098 0 01-6.417 2.28l.004-.001z" fill="#A14B24"/></svg>