<svg width="21" height="20" fill="none" xmlns="http://www.w3.org/2000/svg"><path d="M10.476 19.342l-1.514-1.367a1741.195 1741.195 0 00-3.027-2.735 57.43 57.43 0 01-2.344-2.392c-.912-.977-1.579-1.774-2.002-2.393a14.043 14.043 0 01-1.074-2.1 7.036 7.036 0 01-.44-2.392c0-1.595.554-2.946 1.66-4.053C2.842.803 4.193.25 5.788.25c1.888 0 3.45.732 4.688 2.197C11.713.982 13.276.25 15.163.25c1.628 0 2.995.553 4.102 1.66 1.106 1.107 1.66 2.458 1.66 4.053 0 .781-.163 1.579-.489 2.392a14.044 14.044 0 01-1.074 2.1c-.39.619-1.058 1.416-2.002 2.393a57.477 57.477 0 01-2.343 2.392 212.71 212.71 0 01-3.028 2.783l-1.513 1.319z" fill="#03133D"/></svg>