<svg width="104" height="57" fill="none" xmlns="http://www.w3.org/2000/svg"><path d="M6.048 31.18c-1.008 0-1.908-.252-2.7-.756-.792-.516-1.416-1.26-1.872-2.232-.456-.984-.684-2.148-.684-3.492 0-1.344.228-2.502.684-3.474.456-.984 1.08-1.728 1.872-2.232.792-.516 1.692-.774 2.7-.774 1.008 0 1.908.258 2.7.774.804.504 1.434 1.248 1.89 2.232.456.972.684 2.13.684 3.474 0 1.344-.228 2.508-.684 3.492-.456.972-1.086 1.716-1.89 2.232-.792.504-1.692.756-2.7.756zm0-2.034c.9 0 1.608-.372 2.124-1.116.528-.744.792-1.854.792-3.33s-.264-2.586-.792-3.33c-.516-.744-1.224-1.116-2.124-1.116-.888 0-1.596.372-2.124 1.116-.516.744-.774 1.854-.774 3.33s.258 2.586.774 3.33c.528.744 1.236 1.116 2.124 1.116zM17.171 18.4V31h-2.34V20.362h-2.664V18.4h5.004z" opacity=".2" fill="#0D1116"/><path opacity=".1" d="M10 40v17H8V40h2z" fill="#0D1116"/><path d="M45.048 13.18c-1.008 0-1.908-.252-2.7-.756-.792-.516-1.416-1.26-1.872-2.232-.456-.984-.684-2.148-.684-3.492 0-1.344.228-2.502.684-3.474.456-.984 1.08-1.728 1.872-2.232.792-.516 1.692-.774 2.7-.774 1.008 0 1.908.258 2.7.774.804.504 1.434 1.248 1.89 2.232.456.972.684 2.13.684 3.474 0 1.344-.228 2.508-.684 3.492-.456.972-1.086 1.716-1.89 2.232-.792.504-1.692.756-2.7.756zm0-2.034c.9 0 1.608-.372 2.124-1.116.528-.744.792-1.854.792-3.33s-.264-2.586-.792-3.33c-.516-.744-1.224-1.116-2.124-1.116-.888 0-1.596.372-2.124 1.116-.516.744-.774 1.854-.774 3.33s.258 2.586.774 3.33c.528.744 1.236 1.116 2.124 1.116zm15.893-.126V13h-9.288v-1.566l5.004-4.752c.564-.54.942-1.008 1.134-1.404.204-.408.306-.81.306-1.206 0-.588-.198-1.038-.594-1.35-.396-.312-.978-.468-1.746-.468-1.284 0-2.268.438-2.952 1.314l-1.638-1.26c.492-.66 1.152-1.17 1.98-1.53.84-.372 1.776-.558 2.808-.558 1.368 0 2.46.324 3.276.972.816.648 1.224 1.53 1.224 2.646 0 .684-.144 1.326-.432 1.926-.288.6-.84 1.284-1.656 2.052l-3.366 3.204h5.94z" fill="#0D1116"/><path opacity=".5" d="M51 22v35h-2V22h2z" fill="#0D1116"/><path d="M88.048 31.18c-1.008 0-1.908-.252-2.7-.756-.792-.516-1.416-1.26-1.872-2.232-.456-.984-.684-2.148-.684-3.492 0-1.344.228-2.502.684-3.474.456-.984 1.08-1.728 1.872-2.232.792-.516 1.692-.774 2.7-.774 1.008 0 1.908.258 2.7.774.804.504 1.434 1.248 1.89 2.232.456.972.684 2.13.684 3.474 0 1.344-.228 2.508-.684 3.492-.456.972-1.086 1.716-1.89 2.232-.792.504-1.692.756-2.7.756zm0-2.034c.9 0 1.608-.372 2.124-1.116.528-.744.792-1.854.792-3.33s-.264-2.586-.792-3.33c-.516-.744-1.224-1.116-2.124-1.116-.888 0-1.596.372-2.124 1.116-.516.744-.774 1.854-.774 3.33s.258 2.586.774 3.33c.528.744 1.236 1.116 2.124 1.116zm12.044-5.544c1.164.144 2.052.54 2.664 1.188.612.648.918 1.458.918 2.43 0 .732-.186 1.398-.558 1.998-.372.6-.936 1.08-1.692 1.44-.744.348-1.657.522-2.737.522-.9 0-1.77-.126-2.61-.378-.828-.264-1.535-.624-2.123-1.08l1.008-1.818c.456.384 1.007.69 1.656.918.66.216 1.338.324 2.034.324.828 0 1.476-.168 1.944-.504.48-.348.72-.816.72-1.404s-.228-1.044-.684-1.368c-.444-.336-1.129-.504-2.053-.504h-1.151v-1.602l2.862-3.402h-5.725V18.4h8.587v1.566l-3.06 3.636z" opacity=".2" fill="#0D1116"/><path opacity=".1" d="M94 40v17h-2V40h2z" fill="#0D1116"/></svg>