<svg width="11" height="11" fill="none" xmlns="http://www.w3.org/2000/svg"><path d="M8.645 5.04c-.857 1.694-2.142 2.98-3.856 3.855L3.504 7.609c-.164-.182-.365-.227-.602-.136A6.528 6.528 0 01.824 7.8a.525.525 0 00-.383.164.518.518 0 00-.191.41v2.05c0 .147.064.283.191.41.11.11.237.165.383.165 1.805 0 3.473-.438 5.004-1.313a10.073 10.073 0 003.61-3.609c.874-1.531 1.312-3.2 1.312-5.004a.525.525 0 00-.164-.383.575.575 0 00-.41-.191H8.125a.52.52 0 00-.41.191.525.525 0 00-.164.383c0 .73-.11 1.422-.328 2.078-.073.237-.028.438.136.602l1.286 1.285z" fill="#26A9E0"/></svg>