<svg width="15" height="22" fill="none" xmlns="http://www.w3.org/2000/svg"><path d="M10.645 13.18l4.14 4.14-1.25 1.25-4.14-4.14v-.664l-.235-.235a5.283 5.283 0 01-3.515 1.29c-1.51 0-2.8-.521-3.868-1.563C.736 12.19.215 10.914.215 9.43c0-1.51.52-2.787 1.562-3.828C2.845 4.534 4.121 4 5.605 4c1.51 0 2.787.534 3.829 1.602 1.067 1.041 1.601 2.317 1.601 3.828 0 1.328-.43 2.5-1.289 3.515l.234.235h.665zm-7.657-1.094c.73.73 1.615 1.094 2.657 1.094 1.041 0 1.927-.365 2.656-1.094.729-.73 1.094-1.615 1.094-2.656 0-1.042-.365-1.927-1.094-2.657-.73-.729-1.615-1.093-2.656-1.093-1.042 0-1.928.364-2.657 1.093-.729.73-1.093 1.615-1.093 2.657 0 1.041.364 1.927 1.093 2.656z" fill="#03133D"/></svg>