<svg width="43" height="43" viewBox="0 0 43 43" fill="none" xmlns="http://www.w3.org/2000/svg">
<path d="M5.134 18.294C6.42 11.794 11.5 6.66 17.974 5.298C18.914 4.111 20.041 3.08 21.309 2.252C19.164 0.904 16.629 0.125 13.909 0.125C6.23 0.125 0 6.355 0 14.04C0 16.812 0.812 19.396 2.21 21.563C3.005 20.323 3.995 19.22 5.134 18.293V18.294Z" fill="#26A9E0"/>
<path d="M24.7201 5.272C31.2001 6.586 36.3101 11.675 37.6531 18.144C38.8031 19.079 39.8031 20.189 40.6071 21.438C42.0041 19.27 42.8171 16.688 42.8171 13.915C42.8171 6.23 36.5871 0 28.9001 0C26.1001 0 23.4931 0.828 21.3101 2.25C22.6061 3.066 23.7601 4.09 24.7201 5.272Z" fill="#8BC53F"/>
<path d="M17.9759 5.29801C19.0839 5.06501 20.2309 4.94201 21.4089 4.94201C22.5389 4.94201 23.6489 5.05601 24.7189 5.27201C23.7589 4.09001 22.6029 3.06701 21.3089 2.25201C20.0389 3.08001 18.9089 4.11201 17.9719 5.29801H17.9759Z" fill="#009E4B"/>
<path d="M18.155 37.804C11.622 36.506 6.47 31.37 5.148 24.844C4.003 23.914 3.008 22.808 2.208 21.564C0.813 23.734 0 26.314 0 29.087C0 36.77 6.23 43 13.916 43C16.716 43 19.323 42.177 21.506 40.754C20.236 39.954 19.104 38.958 18.156 37.804H18.155Z" fill="#FFDD15"/>
<path d="M5.14796 24.845C4.93096 23.775 4.81796 22.665 4.81796 21.533C4.81796 20.426 4.92596 19.341 5.13496 18.293C3.99496 19.221 3.00496 20.323 2.20996 21.563C3.00796 22.808 4.00196 23.915 5.14796 24.845Z" fill="#5D9849"/>
<path d="M40.607 21.44C39.813 22.672 38.827 23.774 37.695 24.7C36.429 31.252 31.305 36.432 24.779 37.78C23.851 38.935 22.744 39.94 21.501 40.754C23.641 42.098 26.178 42.878 28.896 42.878C36.581 42.878 42.811 36.648 42.811 28.964C42.811 26.19 42.001 23.606 40.601 21.439L40.607 21.44Z" fill="#F3793B"/>
<path d="M37.6531 18.145C37.8801 19.239 38.0001 20.372 38.0001 21.533C38.0001 22.616 37.8961 23.671 37.6961 24.7C38.8291 23.775 39.8141 22.673 40.6081 21.44C39.8041 20.19 38.8041 19.08 37.6531 18.145V18.145Z" fill="#946A38"/>
<path d="M24.78 37.78C23.692 38.008 22.563 38.126 21.408 38.126C20.295 38.126 19.208 38.016 18.155 37.804C19.105 38.96 20.235 39.954 21.505 40.754C22.749 39.941 23.855 38.936 24.78 37.781V37.78Z" fill="#F58836"/>
<path d="M14.988 13.647C15.048 10.497 16.155 7.603 17.975 5.297C11.5 6.66 6.42001 11.794 5.13501 18.295C7.42101 16.431 10.311 15.282 13.467 15.182C13.92 14.618 14.429 14.105 14.987 13.649L14.988 13.647Z" fill="#0A7599"/>
<path d="M29.245 15.052C32.428 15.13 35.347 16.277 37.653 18.145C36.31 11.675 31.2 6.585 24.72 5.272C26.586 7.569 27.736 10.474 27.823 13.645C28.343 14.065 28.818 14.538 29.245 15.052Z" fill="#57843C"/>
<path d="M21.408 11.365C23.841 11.365 26.074 12.218 27.824 13.645C27.737 10.475 26.588 7.57099 24.72 5.27199C23.65 5.05499 22.542 4.94199 21.408 4.94199C20.232 4.94199 19.083 5.06399 17.975 5.29699C16.155 7.60199 15.048 10.497 14.988 13.647C16.741 12.217 18.975 11.365 21.408 11.365Z" fill="#016A37"/>
<path d="M13.5199 27.948C10.3519 27.86 7.44595 26.712 5.14795 24.844C6.46995 31.368 11.6219 36.504 18.1559 37.804C16.2659 35.509 15.0979 32.602 14.9959 29.422C14.4529 28.982 13.9599 28.487 13.5209 27.948H13.5199Z" fill="#A89332"/>
<path d="M11.2399 21.533C11.2399 19.13 12.0739 16.921 13.4679 15.181C10.3119 15.281 7.42189 16.431 5.13489 18.298C4.92689 19.345 4.81689 20.428 4.81689 21.538C4.81689 22.67 4.93089 23.778 5.14689 24.848C7.44689 26.716 10.3509 27.865 13.5209 27.953C12.0979 26.203 11.2409 23.973 11.2409 21.537L11.2399 21.533Z" fill="#3A6932"/>
<path d="M27.827 29.42C27.752 32.58 26.627 35.48 24.781 37.78C31.311 36.432 36.431 31.252 37.701 24.7C35.425 26.557 32.551 27.712 29.406 27.818C28.942 28.408 28.414 28.946 27.833 29.418L27.827 29.42Z" fill="#C05E2F"/>
<path d="M37.6531 18.145C35.3461 16.278 32.4281 15.13 29.2451 15.052C30.7021 16.812 31.5771 19.072 31.5771 21.532C31.5771 23.906 30.7631 26.092 29.4001 27.819C32.5431 27.709 35.4201 26.554 37.6961 24.699C37.8961 23.669 38.0001 22.612 38.0001 21.529C38.0001 20.369 37.8801 19.235 37.6531 18.141V18.145Z" fill="#62461E"/>
<path d="M21.4079 31.7C18.9759 31.7 16.7439 30.85 14.9929 29.423C15.0959 32.603 16.2649 35.51 18.1529 37.803C19.2059 38.016 20.2929 38.126 21.4069 38.126C22.5619 38.126 23.6909 38.008 24.7789 37.781C26.6209 35.481 27.7489 32.581 27.8209 29.421C26.0709 30.851 23.8379 31.701 21.4039 31.701L21.4079 31.7Z" fill="#A14B24"/>
</svg>
