<svg width="14" height="14" viewBox="0 0 14 14" fill="none" xmlns="http://www.w3.org/2000/svg">
<path d="M12 3.34375V2C12 1.77083 11.8854 1.65625 11.6562 1.65625H10.3438C10.1146 1.65625 10 1.77083 10 2V3.34375C10 3.55208 10.1146 3.65625 10.3438 3.65625H11.6562C11.8854 3.65625 12 3.55208 12 3.34375ZM1.65625 12.3438H11.6562C11.8854 12.3438 12 12.2292 12 12V6.34375H10.5938C10.6354 6.59375 10.6562 6.8125 10.6562 7C10.6562 8.10417 10.2604 9.05208 9.46875 9.84375C8.69792 10.6146 7.76042 11 6.65625 11C5.55208 11 4.60417 10.6146 3.8125 9.84375C3.04167 9.05208 2.65625 8.10417 2.65625 7C2.65625 6.77083 2.67708 6.55208 2.71875 6.34375H1.34375V12C1.34375 12.2292 1.44792 12.3438 1.65625 12.3438ZM8.5625 5.125C8.04167 4.60417 7.40625 4.34375 6.65625 4.34375C5.92708 4.34375 5.30208 4.60417 4.78125 5.125C4.26042 5.64583 4 6.27083 4 7C4 7.72917 4.26042 8.35417 4.78125 8.875C5.30208 9.39583 5.92708 9.65625 6.65625 9.65625C7.40625 9.65625 8.04167 9.39583 8.5625 8.875C9.08333 8.35417 9.34375 7.72917 9.34375 7C9.34375 6.27083 9.08333 5.64583 8.5625 5.125ZM12 0.34375C12.375 0.34375 12.6875 0.479167 12.9375 0.75C13.2083 1 13.3438 1.30208 13.3438 1.65625V12.3438C13.3438 12.6979 13.2083 13 12.9375 13.25C12.6875 13.5208 12.375 13.6562 12 13.6562H1.34375C0.96875 13.6562 0.645833 13.5208 0.375 13.25C0.125 13 0 12.6979 0 12.3438V1.65625C0 1.30208 0.125 1 0.375 0.75C0.645833 0.479167 0.96875 0.34375 1.34375 0.34375H12Z" fill="#03133D"/>
</svg>
