<svg width="14" height="14" viewBox="0 0 14 14" fill="none" xmlns="http://www.w3.org/2000/svg">
<path d="M10.2188 8.1875C10.2188 7.72917 10.1354 7.39583 9.96875 7.1875C9.80208 6.95833 9.48958 6.84375 9.03125 6.84375C8.46875 6.84375 8.07292 7.01042 7.84375 7.34375C7.61458 7.67708 7.5 8.14583 7.5 8.75V13.3125C7.5 13.4167 7.46875 13.5 7.40625 13.5625C7.34375 13.625 7.26042 13.6562 7.15625 13.6562H4.78125C4.69792 13.6562 4.61458 13.625 4.53125 13.5625C4.46875 13.5 4.4375 13.4167 4.4375 13.3125V4.875C4.4375 4.79167 4.46875 4.71875 4.53125 4.65625C4.61458 4.57292 4.69792 4.53125 4.78125 4.53125H7.09375C7.17708 4.53125 7.23958 4.55208 7.28125 4.59375C7.34375 4.63542 7.38542 4.69792 7.40625 4.78125C7.40625 4.86458 7.40625 4.91667 7.40625 4.9375C7.42708 4.97917 7.4375 5.05208 7.4375 5.15625C8.02083 4.59375 8.8125 4.3125 9.8125 4.3125C10.9167 4.3125 11.7812 4.59375 12.4062 5.15625C13.0312 5.71875 13.3438 6.54167 13.3438 7.625V13.3125C13.3438 13.4167 13.3021 13.5 13.2188 13.5625C13.1562 13.625 13.0833 13.6562 13 13.6562H10.5625C10.4792 13.6562 10.3958 13.625 10.3125 13.5625C10.25 13.5 10.2188 13.4167 10.2188 13.3125V8.1875ZM3.21875 1.96875C3.21875 2.40625 3.0625 2.79167 2.75 3.125C2.4375 3.4375 2.05208 3.59375 1.59375 3.59375C1.15625 3.59375 0.78125 3.4375 0.46875 3.125C0.15625 2.79167 0 2.40625 0 1.96875C0 1.51042 0.15625 1.125 0.46875 0.8125C0.78125 0.5 1.15625 0.34375 1.59375 0.34375C2.05208 0.34375 2.4375 0.5 2.75 0.8125C3.0625 1.125 3.21875 1.51042 3.21875 1.96875ZM3.15625 4.875V13.3125C3.15625 13.4167 3.11458 13.5 3.03125 13.5625C2.96875 13.625 2.89583 13.6562 2.8125 13.6562H0.4375C0.333333 13.6562 0.25 13.625 0.1875 13.5625C0.125 13.5 0.09375 13.4167 0.09375 13.3125V4.875C0.09375 4.79167 0.125 4.71875 0.1875 4.65625C0.25 4.57292 0.333333 4.53125 0.4375 4.53125H2.8125C2.89583 4.53125 2.96875 4.57292 3.03125 4.65625C3.11458 4.71875 3.15625 4.79167 3.15625 4.875Z" fill="#03133D"/>
</svg>
