<svg width="103" height="30" viewBox="0 0 103 30" fill="none" xmlns="http://www.w3.org/2000/svg">
<g clip-path="url(#clip0_235_4760)">
<path d="M4.26903 12.7632C5.16402 8.22832 8.69942 4.64646 13.205 3.69623C13.8592 2.86809 14.6435 2.14879 15.526 1.57111C14.0332 0.630646 12.2689 0.0871582 10.376 0.0871582C5.03179 0.0871582 0.696045 4.43367 0.696045 9.7953C0.696045 11.7293 1.26115 13.532 2.23409 15.0439C2.78736 14.1788 3.47635 13.4093 4.26903 12.7625V12.7632Z" fill="#26A9E0"/>
<path d="M17.8998 3.67814C22.4095 4.59488 25.9658 8.14535 26.9005 12.6586C27.7008 13.3109 28.3967 14.0853 28.9563 14.9567C29.9285 13.4442 30.4943 11.6428 30.4943 9.70814C30.4943 4.34651 26.1586 0 20.8088 0C18.8602 0 17.0459 0.577674 15.5266 1.56977C16.4286 2.13907 17.2317 2.85349 17.8998 3.67814Z" fill="#8BC53F"/>
<path d="M13.2064 3.69641C13.9775 3.53385 14.7758 3.44803 15.5956 3.44803C16.382 3.44803 17.1545 3.52757 17.8992 3.67827C17.2311 2.85361 16.4265 2.13989 15.526 1.57129C14.6421 2.14896 13.8557 2.86896 13.2036 3.69641H13.2064Z" fill="#009E4B"/>
<path d="M13.3309 26.3749C8.78433 25.4693 5.19881 21.8861 4.27877 17.3331C3.48192 16.6842 2.78945 15.9126 2.23269 15.0447C1.26185 16.5586 0.696045 18.3586 0.696045 20.2933C0.696045 25.6535 5.03179 30 10.3808 30C12.3295 30 14.1438 29.4258 15.6631 28.4331C14.7792 27.8749 13.9914 27.18 13.3316 26.3749H13.3309Z" fill="#FFDD15"/>
<path d="M4.27858 17.3339C4.12756 16.5873 4.04891 15.8129 4.04891 15.0232C4.04891 14.2508 4.12408 13.4939 4.26953 12.7627C3.47615 13.4101 2.78716 14.179 2.23389 15.0441C2.78925 15.9127 3.48102 16.685 4.27858 17.3339Z" fill="#5D9849"/>
<path d="M28.9562 14.9582C28.4036 15.8178 27.7174 16.5866 26.9296 17.2326C26.0485 21.8038 22.4825 25.4178 17.9407 26.3582C17.2949 27.164 16.5245 27.8652 15.6594 28.4331C17.1487 29.3708 18.9144 29.915 20.8059 29.915C26.1543 29.915 30.49 25.5685 30.49 20.2075C30.49 18.2722 29.9263 16.4694 28.952 14.9575L28.9562 14.9582Z" fill="#F3793B"/>
<path d="M26.9004 12.6592C27.0584 13.4224 27.1419 14.2129 27.1419 15.0229C27.1419 15.7785 27.0695 16.5145 26.9303 17.2324C27.7188 16.5871 28.4043 15.8183 28.9569 14.958C28.3974 14.0859 27.7014 13.3115 26.9004 12.6592Z" fill="#946A38"/>
<path d="M17.9415 26.3582C17.1843 26.5172 16.3985 26.5996 15.5947 26.5996C14.8201 26.5996 14.0636 26.5228 13.3308 26.3749C13.992 27.1814 14.7784 27.8749 15.6622 28.433C16.528 27.8658 17.2977 27.1647 17.9415 26.3589V26.3582Z" fill="#F58836"/>
<path d="M11.1267 9.52114C11.1684 7.32346 11.9389 5.30439 13.2055 3.69556C8.69923 4.64649 5.16382 8.22835 4.26953 12.7639C5.86046 11.4635 7.87175 10.6618 10.0682 10.5921C10.3834 10.1986 10.7377 9.84067 11.126 9.52253L11.1267 9.52114Z" fill="#0A7599"/>
<path d="M21.0488 10.5015C23.264 10.5559 25.2955 11.3561 26.9003 12.6594C25.9657 8.14543 22.4094 4.59427 17.8997 3.67822C19.1983 5.28078 19.9986 7.30753 20.0592 9.51985C20.4211 9.81287 20.7516 10.1429 21.0488 10.5015Z" fill="#57843C"/>
<path d="M15.5947 7.92916C17.2879 7.92916 18.842 8.52428 20.0599 9.51986C19.9993 7.30823 19.1997 5.28218 17.8997 3.67823C17.155 3.52684 16.3839 3.448 15.5947 3.448C14.7762 3.448 13.9766 3.53311 13.2055 3.69567C11.9389 5.30381 11.1685 7.32358 11.1267 9.52125C12.3467 8.52358 13.9014 7.92916 15.5947 7.92916Z" fill="#016A37"/>
<path d="M10.1053 19.4986C7.90051 19.4372 5.87809 18.6363 4.27881 17.333C5.19885 21.8846 8.78436 25.4679 13.3317 26.3749C12.0163 24.7737 11.2035 22.7456 11.1325 20.527C10.7546 20.22 10.4115 19.8746 10.106 19.4986H10.1053Z" fill="#A89332"/>
<path d="M8.5184 15.0232C8.5184 13.3467 9.09882 11.8055 10.069 10.5916C7.87256 10.6613 5.86128 11.4636 4.26965 12.7662C4.12489 13.4967 4.04834 14.2523 4.04834 15.0267C4.04834 15.8164 4.12768 16.5895 4.278 17.336C5.87868 18.6392 7.89971 19.4409 10.1059 19.5023C9.11552 18.2813 8.5191 16.7255 8.5191 15.026L8.5184 15.0232Z" fill="#3A6932"/>
<path d="M20.062 20.5257C20.0098 22.7303 19.2269 24.7536 17.9421 26.3582C22.4867 25.4178 26.0499 21.8038 26.9338 17.2327C25.3498 18.5282 23.3496 19.3341 21.1609 19.408C20.838 19.8196 20.4705 20.195 20.0662 20.5243L20.062 20.5257Z" fill="#C05E2F"/>
<path d="M26.9003 12.6594C25.2948 11.3568 23.264 10.5559 21.0488 10.5015C22.0628 11.7294 22.6718 13.3061 22.6718 15.0224C22.6718 16.6787 22.1053 18.2038 21.1567 19.4087C23.3441 19.3319 25.3463 18.5261 26.9303 17.2319C27.0695 16.5133 27.1418 15.7759 27.1418 15.0203C27.1418 14.211 27.0583 13.4198 26.9003 12.6566V12.6594Z" fill="#62461E"/>
<path d="M15.5949 22.1164C13.9023 22.1164 12.349 21.5233 11.1304 20.5278C11.2021 22.7464 12.0156 24.7745 13.3296 26.3743C14.0624 26.5229 14.8189 26.5996 15.5942 26.5996C16.398 26.5996 17.1837 26.5173 17.9409 26.3589C19.2228 24.7543 20.0079 22.731 20.058 20.5264C18.8401 21.524 17.286 22.1171 15.5921 22.1171L15.5949 22.1164Z" fill="#A14B24"/>
<path d="M41.7568 8.23952H44.0465V19.2167H50.9016V21.3063H41.7568V8.23952ZM54.1168 15.7639V8.23952H56.4086V15.6698C56.4086 18.0977 57.6557 19.4044 59.7046 19.4044C61.7312 19.4044 62.9825 18.1709 62.9825 15.7639V8.23952H65.2722V15.6509C65.2722 19.5537 63.073 21.5128 59.6649 21.5128C56.2743 21.5128 54.1148 19.5523 54.1148 15.7639H54.1168ZM70.0623 8.23952H72.503L76.4664 14.4195L80.4312 8.24022H82.8719V21.3077H80.5823V11.9372L76.4664 18.0977H76.3913L72.313 11.9742V21.307H70.0596L70.0582 8.23952H70.0623ZM92.2101 8.14673H94.3328L100.069 21.3077H97.6469L96.326 18.1542H90.1634L88.8223 21.3077H86.4755L92.2101 8.14952V8.14673ZM95.488 16.1191L93.2332 10.8914L90.9992 16.1218H95.488V16.1191Z" fill="#333333"/>
</g>
<defs>
<clipPath id="clip0_235_4760">
<rect width="103" height="30" fill="white"/>
</clipPath>
</defs>
</svg>
