<svg width="14" height="12" viewBox="0 0 14 12" fill="none" xmlns="http://www.w3.org/2000/svg">
<path d="M11.9688 3.28125C11.9688 3.40625 11.9688 3.52083 11.9688 3.625C11.9688 4.5625 11.7917 5.48958 11.4375 6.40625C11.1042 7.30208 10.6146 8.125 9.96875 8.875C9.34375 9.625 8.52083 10.2396 7.5 10.7188C6.5 11.1771 5.39583 11.4062 4.1875 11.4062C2.66667 11.4062 1.27083 11 0 10.1875C0.208333 10.2083 0.427083 10.2188 0.65625 10.2188C1.92708 10.2188 3.0625 9.83333 4.0625 9.0625C3.45833 9.04167 2.91667 8.85417 2.4375 8.5C1.97917 8.14583 1.66667 7.69792 1.5 7.15625C1.66667 7.19792 1.83333 7.21875 2 7.21875C2.25 7.21875 2.48958 7.17708 2.71875 7.09375C2.09375 6.96875 1.57292 6.65625 1.15625 6.15625C0.739583 5.65625 0.53125 5.08333 0.53125 4.4375C0.53125 4.41667 0.53125 4.40625 0.53125 4.40625C0.927083 4.61458 1.34375 4.72917 1.78125 4.75C0.96875 4.1875 0.5625 3.42708 0.5625 2.46875C0.5625 1.96875 0.6875 1.51042 0.9375 1.09375C1.625 1.92708 2.44792 2.59375 3.40625 3.09375C4.38542 3.59375 5.4375 3.875 6.5625 3.9375C6.52083 3.72917 6.5 3.52083 6.5 3.3125C6.5 2.5625 6.76042 1.92708 7.28125 1.40625C7.82292 0.864583 8.46875 0.59375 9.21875 0.59375C10.0104 0.59375 10.6771 0.875 11.2188 1.4375C11.8438 1.3125 12.4271 1.09375 12.9688 0.78125C12.7604 1.42708 12.3542 1.92708 11.75 2.28125C12.3125 2.21875 12.8438 2.08333 13.3438 1.875C12.9688 2.41667 12.5104 2.88542 11.9688 3.28125Z" fill="#03133D"/>
</svg>
