<svg width="185" height="185" fill="none" xmlns="http://www.w3.org/2000/svg"><g filter="url(#filter0_dd_333_3236)"><circle cx="87.5" cy="87.5" r="47.5" fill="#fff"/></g><circle cx="72.5" cy="43.5" r="2.5" fill="url(#paint0_linear_333_3236)"/><circle cx="134.5" cy="81.5" r="2.5" fill="url(#paint1_linear_333_3236)"/><circle cx="54.5" cy="121.5" r="2.5" fill="url(#paint2_linear_333_3236)"/><path d="M94.652 91.807a.686.686 0 00-.683.683v4.717a3.42 3.42 0 01-3.418 3.418h-7.383a.686.686 0 00-.684.684v1.36l-1.633-1.634a.688.688 0 00-.63-.41h-4.436a3.42 3.42 0 01-3.418-3.418V86.68a3.42 3.42 0 013.418-3.418h6.904a.686.686 0 00.684-.684.686.686 0 00-.684-.684h-6.904A4.79 4.79 0 0071 86.68v10.527a4.79 4.79 0 004.785 4.785h4.095l2.81 2.81c.13.13.307.198.485.198a.574.574 0 00.26-.055.684.684 0 00.423-.629v-2.324h6.7a4.79 4.79 0 004.785-4.785V92.49a.696.696 0 00-.69-.683z" fill="#26A9E0"/><path d="M96.067 70h-1.73c-5.481 0-9.939 4.457-9.939 9.933 0 5.475 4.458 9.932 9.933 9.932h1.73c.854 0 1.702-.11 2.522-.321l2.557 2.557a.687.687 0 001.169-.486v-3.958a10.01 10.01 0 002.611-3.22 9.797 9.797 0 001.08-4.511c0-5.469-4.457-9.926-9.933-9.926zm5.148 16.782a.683.683 0 00-.274.547v2.639l-1.674-1.675a.688.688 0 00-.486-.198.632.632 0 00-.198.027 8.478 8.478 0 01-2.522.376h-1.73c-4.724 0-8.565-3.842-8.565-8.565 0-4.724 3.841-8.566 8.565-8.566h1.73c4.73 0 8.572 3.842 8.572 8.566a8.492 8.492 0 01-3.418 6.85z" fill="#26A9E0"/><path d="M98.275 77.478a2.906 2.906 0 00-2.686-2.686 2.88 2.88 0 00-2.18.772 2.928 2.928 0 00-.924 2.12c0 .376.308.683.684.683a.686.686 0 00.684-.684c0-.43.17-.827.485-1.114a1.493 1.493 0 011.148-.403c.752.055 1.36.656 1.415 1.415a1.516 1.516 0 01-1.19 1.6 1.293 1.293 0 00-1.018 1.264v1.64c0 .377.308.684.684.684a.686.686 0 00.684-.683V80.5a2.882 2.882 0 002.214-3.022zm-2.399 6.83a.677.677 0 00-.485-.199.677.677 0 00-.684.684c0 .178.075.355.198.485.13.13.301.199.486.199a.677.677 0 00.684-.684.694.694 0 00-.199-.485zm-6.077 6.883H75.375a.686.686 0 00-.684.684c0 .376.308.684.684.684h14.424a.686.686 0 00.683-.684.686.686 0 00-.683-.684zm.485 4.027a.677.677 0 00-.485-.199.677.677 0 00-.684.684.677.677 0 00.684.684.677.677 0 00.684-.684.719.719 0 00-.199-.485zm-3.172-.198H75.375a.686.686 0 00-.684.683c0 .376.308.684.684.684h11.737a.686.686 0 00.684-.684.686.686 0 00-.684-.684zm-1.756-7.657h-9.981a.686.686 0 00-.684.684c0 .376.308.684.684.684h9.98a.686.686 0 00.684-.684.686.686 0 00-.683-.684z" fill="#26A9E0"/><defs><linearGradient id="paint0_linear_333_3236" x1="71" y1="42" x2="74" y2="45.5" gradientUnits="userSpaceOnUse"><stop stop-color="#2197C9"/><stop offset="1" stop-color="#42C7FF"/></linearGradient><linearGradient id="paint1_linear_333_3236" x1="133" y1="80" x2="136" y2="83.5" gradientUnits="userSpaceOnUse"><stop stop-color="#2197C9"/><stop offset="1" stop-color="#42C7FF"/></linearGradient><linearGradient id="paint2_linear_333_3236" x1="53" y1="120" x2="56" y2="123.5" gradientUnits="userSpaceOnUse"><stop stop-color="#2197C9"/><stop offset="1" stop-color="#42C7FF"/></linearGradient><filter id="filter0_dd_333_3236" x="0" y="0" width="185" height="185" filterUnits="userSpaceOnUse" color-interpolation-filters="sRGB"><feFlood flood-opacity="0" result="BackgroundImageFix"/><feColorMatrix in="SourceAlpha" values="0 0 0 0 0 0 0 0 0 0 0 0 0 0 0 0 0 0 127 0" result="hardAlpha"/><feOffset dx="-10" dy="-10"/><feGaussianBlur stdDeviation="15"/><feColorMatrix values="0 0 0 0 1 0 0 0 0 1 0 0 0 0 1 0 0 0 0.4 0"/><feBlend in2="BackgroundImageFix" result="effect1_dropShadow_333_3236"/><feColorMatrix in="SourceAlpha" values="0 0 0 0 0 0 0 0 0 0 0 0 0 0 0 0 0 0 127 0" result="hardAlpha"/><feOffset dx="10" dy="10"/><feGaussianBlur stdDeviation="20"/><feColorMatrix values="0 0 0 0 0.682353 0 0 0 0 0.682353 0 0 0 0 0.752941 0 0 0 0.2 0"/><feBlend in2="effect1_dropShadow_333_3236" result="effect2_dropShadow_333_3236"/><feBlend in="SourceGraphic" in2="effect2_dropShadow_333_3236" result="shape"/></filter></defs></svg>