<svg width="185" height="185" fill="none" xmlns="http://www.w3.org/2000/svg"><g filter="url(#filter0_dd_333_3192)"><circle cx="87.5" cy="87.5" r="47.5" fill="#fff"/></g><circle cx="72.5" cy="43.5" r="2.5" fill="url(#paint0_linear_333_3192)"/><circle cx="134.5" cy="81.5" r="2.5" fill="url(#paint1_linear_333_3192)"/><circle cx="54.5" cy="121.5" r="2.5" fill="url(#paint2_linear_333_3192)"/><g clip-path="url(#clip0_333_3192)"><path d="M108.611 76.967L88.818 67.07a.73.73 0 00-.636 0l-19.793 9.897a.72.72 0 00-.389.636v19.793c0 .265.15.513.389.636l19.793 9.897a.732.732 0 00.636 0l19.793-9.897a.72.72 0 00.389-.636V77.603a.72.72 0 00-.389-.636zM88.5 86.713l-5.523-2.765 17.664-9.385 6.079 3.04-18.22 9.11zM77.322 81.12l17.664-9.384 4.1 2.05-17.664 9.384-4.1-2.05zm-.84 1.157l4.242 2.121v5.629l-1.617-1.617a.7.7 0 00-.504-.203h-2.12v-5.93zM88.5 68.493l4.93 2.465-17.663 9.384-5.478-2.739 18.211-9.11zm-19.086 10.25l5.655 2.828v7.342c0 .39.318.707.707.707h2.536l2.624 2.625a.7.7 0 001.202-.504v-6.636l5.655 2.828v18.211l-18.38-9.19V78.743zm19.793 27.41v-18.22l18.379-9.19v18.211l-18.38 9.199z" fill="#26A9E0"/></g><defs><linearGradient id="paint0_linear_333_3192" x1="71" y1="42" x2="74" y2="45.5" gradientUnits="userSpaceOnUse"><stop stop-color="#2197C9"/><stop offset="1" stop-color="#42C7FF"/></linearGradient><linearGradient id="paint1_linear_333_3192" x1="133" y1="80" x2="136" y2="83.5" gradientUnits="userSpaceOnUse"><stop stop-color="#2197C9"/><stop offset="1" stop-color="#42C7FF"/></linearGradient><linearGradient id="paint2_linear_333_3192" x1="53" y1="120" x2="56" y2="123.5" gradientUnits="userSpaceOnUse"><stop stop-color="#2197C9"/><stop offset="1" stop-color="#42C7FF"/></linearGradient><clipPath id="clip0_333_3192"><path fill="#fff" transform="translate(68 67)" d="M0 0h41v41H0z"/></clipPath><filter id="filter0_dd_333_3192" x="0" y="0" width="185" height="185" filterUnits="userSpaceOnUse" color-interpolation-filters="sRGB"><feFlood flood-opacity="0" result="BackgroundImageFix"/><feColorMatrix in="SourceAlpha" values="0 0 0 0 0 0 0 0 0 0 0 0 0 0 0 0 0 0 127 0" result="hardAlpha"/><feOffset dx="-10" dy="-10"/><feGaussianBlur stdDeviation="15"/><feColorMatrix values="0 0 0 0 1 0 0 0 0 1 0 0 0 0 1 0 0 0 0.4 0"/><feBlend in2="BackgroundImageFix" result="effect1_dropShadow_333_3192"/><feColorMatrix in="SourceAlpha" values="0 0 0 0 0 0 0 0 0 0 0 0 0 0 0 0 0 0 127 0" result="hardAlpha"/><feOffset dx="10" dy="10"/><feGaussianBlur stdDeviation="20"/><feColorMatrix values="0 0 0 0 0.682353 0 0 0 0 0.682353 0 0 0 0 0.752941 0 0 0 0.2 0"/><feBlend in2="effect1_dropShadow_333_3192" result="effect2_dropShadow_333_3192"/><feBlend in="SourceGraphic" in2="effect2_dropShadow_333_3192" result="shape"/></filter></defs></svg>