<svg width="185" height="185" fill="none" xmlns="http://www.w3.org/2000/svg"><g filter="url(#filter0_dd_333_3204)"><circle cx="87.5" cy="87.5" r="47.5" fill="#fff"/></g><circle cx="72.5" cy="43.5" r="2.5" fill="url(#paint0_linear_333_3204)"/><circle cx="134.5" cy="81.5" r="2.5" fill="url(#paint1_linear_333_3204)"/><circle cx="54.5" cy="121.5" r="2.5" fill="url(#paint2_linear_333_3204)"/><path d="M105.309 82.365a.526.526 0 00-.882 0l-4.726 7.205a.539.539 0 00.441.83h4.032a16.532 16.532 0 01-5.653 10.333c-2.916 2.501-6.58 3.932-10.052 3.932-2.264 0-4.631-.612-6.845-1.767a17.014 17.014 0 01-5.832-5.003.528.528 0 10-.85.623 18.08 18.08 0 006.194 5.314c2.364 1.232 4.9 1.884 7.333 1.884 3.72 0 7.634-1.52 10.738-4.182a17.707 17.707 0 006.03-11.134h4.357a.533.533 0 00.526-.558.535.535 0 00-.085-.268l-4.726-7.21zm-4.19 6.98l3.749-5.716 3.749 5.717h-7.498zm-23.797-4.462a.533.533 0 00-.464-.283h-4.032a16.535 16.535 0 015.653-10.333c2.917-2.5 6.58-3.931 10.052-3.931 2.264 0 4.631.612 6.846 1.766a17.018 17.018 0 015.831 5.003.52.52 0 00.346.22.525.525 0 00.61-.446.526.526 0 00-.105-.397 18.077 18.077 0 00-6.195-5.314c-2.364-1.232-4.9-1.884-7.333-1.884-3.72 0-7.634 1.52-10.738 4.182a17.71 17.71 0 00-6.03 11.134h-4.357a.536.536 0 00-.44.826l4.725 7.207a.527.527 0 00.882.002l4.726-7.21a.533.533 0 00.023-.542zm-5.19 6.488l-3.75-5.717h7.5l-3.75 5.717z" fill="#26A9E0"/><path d="M88.733 75.287a.528.528 0 00-.465 0l-9.332 4.578a.513.513 0 00-.28.474v8.758c0 2.27 1.455 5.049 3.33 6.328l6.225 4.25a.514.514 0 00.588 0l6.215-4.25c1.876-1.28 3.33-4.059 3.33-6.328v-8.745a.514.514 0 00-.28-.474l-9.331-4.59zm8.556 13.81c0 1.924-1.279 4.372-2.87 5.457L88.492 98.6l-5.915-4.047c-1.564-1.067-2.866-3.566-2.866-5.457v-8.43l8.79-4.319 8.788 4.332v8.417z" fill="#26A9E0"/><path d="M84.913 86.85a.526.526 0 10-.736.754L87 90.361a.527.527 0 00.737 0l5.087-4.966a.527.527 0 00-.737-.755l-4.719 4.607-2.455-2.397z" fill="#26A9E0"/><defs><linearGradient id="paint0_linear_333_3204" x1="71" y1="42" x2="74" y2="45.5" gradientUnits="userSpaceOnUse"><stop stop-color="#2197C9"/><stop offset="1" stop-color="#42C7FF"/></linearGradient><linearGradient id="paint1_linear_333_3204" x1="133" y1="80" x2="136" y2="83.5" gradientUnits="userSpaceOnUse"><stop stop-color="#2197C9"/><stop offset="1" stop-color="#42C7FF"/></linearGradient><linearGradient id="paint2_linear_333_3204" x1="53" y1="120" x2="56" y2="123.5" gradientUnits="userSpaceOnUse"><stop stop-color="#2197C9"/><stop offset="1" stop-color="#42C7FF"/></linearGradient><filter id="filter0_dd_333_3204" x="0" y="0" width="185" height="185" filterUnits="userSpaceOnUse" color-interpolation-filters="sRGB"><feFlood flood-opacity="0" result="BackgroundImageFix"/><feColorMatrix in="SourceAlpha" values="0 0 0 0 0 0 0 0 0 0 0 0 0 0 0 0 0 0 127 0" result="hardAlpha"/><feOffset dx="-10" dy="-10"/><feGaussianBlur stdDeviation="15"/><feColorMatrix values="0 0 0 0 1 0 0 0 0 1 0 0 0 0 1 0 0 0 0.4 0"/><feBlend in2="BackgroundImageFix" result="effect1_dropShadow_333_3204"/><feColorMatrix in="SourceAlpha" values="0 0 0 0 0 0 0 0 0 0 0 0 0 0 0 0 0 0 127 0" result="hardAlpha"/><feOffset dx="10" dy="10"/><feGaussianBlur stdDeviation="20"/><feColorMatrix values="0 0 0 0 0.682353 0 0 0 0 0.682353 0 0 0 0 0.752941 0 0 0 0.2 0"/><feBlend in2="effect1_dropShadow_333_3204" result="effect2_dropShadow_333_3204"/><feBlend in="SourceGraphic" in2="effect2_dropShadow_333_3204" result="shape"/></filter></defs></svg>