<svg width="185" height="185" fill="none" xmlns="http://www.w3.org/2000/svg"><g filter="url(#filter0_dd_333_3219)"><circle cx="87.5" cy="87.5" r="47.5" fill="#fff"/></g><circle cx="72.5" cy="43.5" r="2.5" fill="url(#paint0_linear_333_3219)"/><circle cx="134.5" cy="81.5" r="2.5" fill="url(#paint1_linear_333_3219)"/><circle cx="54.5" cy="121.5" r="2.5" fill="url(#paint2_linear_333_3219)"/><path d="M100.983 102.937H73.168a2.141 2.141 0 01-2.141-2.14V74.975a.513.513 0 111.027 0v25.822a1.116 1.116 0 001.114 1.113h27.815a1.111 1.111 0 001.112-1.113V93.83a.514.514 0 111.027 0v6.968a2.144 2.144 0 01-2.139 2.139z" fill="#26A9E0"/><path d="M102.608 88.01a.513.513 0 01-.513-.514v-7.488a1.117 1.117 0 00-1.114-1.114H74.613a.513.513 0 110-1.027h26.37a2.144 2.144 0 012.139 2.141v7.488a.511.511 0 01-.514.514z" fill="#26A9E0"/><path d="M98.84 78.894H74.826a3.805 3.805 0 01-3.8-3.8v-.23a3.805 3.805 0 013.8-3.8h22.081a2.45 2.45 0 012.447 2.447v4.87a.515.515 0 01-.516.513zM74.826 72.09a2.777 2.777 0 00-2.773 2.773v.23a2.777 2.777 0 002.773 2.773h23.498V73.51a1.422 1.422 0 00-1.417-1.42h-22.08zm29.56 22.253h-5.428a3.678 3.678 0 01-2.602-6.277 3.63 3.63 0 012.602-1.082h5.768a.766.766 0 00.555-.23.792.792 0 00.231-.556.515.515 0 011.027 0v5.997a2.151 2.151 0 01-2.153 2.148zm-5.428-6.334a2.656 2.656 0 00-2.65 2.656 2.652 2.652 0 002.65 2.649h5.428a1.124 1.124 0 001.126-1.12V87.83a1.8 1.8 0 01-.786.179h-5.769z" fill="#26A9E0"/><path d="M104.726 88.009h-2.13a.513.513 0 01-.513-.514v-2.6a.514.514 0 01.513-.514h2.13a1.813 1.813 0 110 3.626v.002zm-1.616-1.028h1.616a.766.766 0 00.555-.23.78.78 0 00-.117-1.211.784.784 0 00-.438-.132h-1.616v1.573zm-3.934 5.277a1.654 1.654 0 110-3.308 1.654 1.654 0 010 3.308zm0-2.281a.627.627 0 100 1.25.627.627 0 000-1.249v-.001z" fill="#26A9E0"/><defs><linearGradient id="paint0_linear_333_3219" x1="71" y1="42" x2="74" y2="45.5" gradientUnits="userSpaceOnUse"><stop stop-color="#2197C9"/><stop offset="1" stop-color="#42C7FF"/></linearGradient><linearGradient id="paint1_linear_333_3219" x1="133" y1="80" x2="136" y2="83.5" gradientUnits="userSpaceOnUse"><stop stop-color="#2197C9"/><stop offset="1" stop-color="#42C7FF"/></linearGradient><linearGradient id="paint2_linear_333_3219" x1="53" y1="120" x2="56" y2="123.5" gradientUnits="userSpaceOnUse"><stop stop-color="#2197C9"/><stop offset="1" stop-color="#42C7FF"/></linearGradient><filter id="filter0_dd_333_3219" x="0" y="0" width="185" height="185" filterUnits="userSpaceOnUse" color-interpolation-filters="sRGB"><feFlood flood-opacity="0" result="BackgroundImageFix"/><feColorMatrix in="SourceAlpha" values="0 0 0 0 0 0 0 0 0 0 0 0 0 0 0 0 0 0 127 0" result="hardAlpha"/><feOffset dx="-10" dy="-10"/><feGaussianBlur stdDeviation="15"/><feColorMatrix values="0 0 0 0 1 0 0 0 0 1 0 0 0 0 1 0 0 0 0.4 0"/><feBlend in2="BackgroundImageFix" result="effect1_dropShadow_333_3219"/><feColorMatrix in="SourceAlpha" values="0 0 0 0 0 0 0 0 0 0 0 0 0 0 0 0 0 0 127 0" result="hardAlpha"/><feOffset dx="10" dy="10"/><feGaussianBlur stdDeviation="20"/><feColorMatrix values="0 0 0 0 0.682353 0 0 0 0 0.682353 0 0 0 0 0.752941 0 0 0 0.2 0"/><feBlend in2="effect1_dropShadow_333_3219" result="effect2_dropShadow_333_3219"/><feBlend in="SourceGraphic" in2="effect2_dropShadow_333_3219" result="shape"/></filter></defs></svg>