<svg width="16" height="22" viewBox="0 0 16 22" fill="none" xmlns="http://www.w3.org/2000/svg">
<path d="M10.3633 10.5234C9.71224 11.1745 8.91797 11.5 7.98047 11.5C7.06901 11.5 6.28776 11.1745 5.63672 10.5234C4.98568 9.8724 4.66016 9.09115 4.66016 8.17969C4.66016 7.24219 4.98568 6.44792 5.63672 5.79688C6.28776 5.14583 7.06901 4.82031 7.98047 4.82031C8.91797 4.82031 9.71224 5.14583 10.3633 5.79688C11.0143 6.44792 11.3398 7.24219 11.3398 8.17969C11.3398 9.09115 11.0143 9.8724 10.3633 10.5234ZM5.28516 13.5312C6.27474 13.2969 7.17318 13.1797 7.98047 13.1797C8.8138 13.1797 9.72526 13.2969 10.7148 13.5312C11.7044 13.7656 12.6029 14.1562 13.4102 14.7031C14.2435 15.224 14.6602 15.8229 14.6602 16.5V18.1797H1.33984V16.5C1.33984 15.8229 1.74349 15.224 2.55078 14.7031C3.38411 14.1562 4.29557 13.7656 5.28516 13.5312Z" fill="#03133D"/>
</svg>
