<svg width="23" height="20" viewBox="0 0 23 20" fill="none" xmlns="http://www.w3.org/2000/svg">
<path d="M16.9443 7.5H21.9248C22.2178 7.5 22.4619 7.61393 22.6572 7.8418C22.8525 8.03711 22.9502 8.26497 22.9502 8.52539V8.81836L20.3135 18.4863C20.1833 18.9095 19.9229 19.2676 19.5322 19.5605C19.1742 19.8535 18.751 20 18.2627 20H4.7373C4.24902 20 3.82585 19.8535 3.46777 19.5605C3.1097 19.2676 2.86556 18.9095 2.73535 18.4863L0.0986328 8.81836C0.0660807 8.75326 0.0498047 8.6556 0.0498047 8.52539C0.0498047 8.26497 0.147461 8.03711 0.342773 7.8418C0.570638 7.61393 0.814779 7.5 1.0752 7.5H6.10449L10.6455 0.664062C10.8408 0.371094 11.1175 0.224609 11.4756 0.224609C11.8662 0.224609 12.1592 0.371094 12.3545 0.664062L16.9443 7.5ZM8.39941 7.5H14.6494L11.5244 2.91016L8.39941 7.5ZM10.0107 15.2637C10.4339 15.6543 10.9222 15.8496 11.4756 15.8496C12.0615 15.8496 12.5498 15.6543 12.9404 15.2637C13.3636 14.8405 13.5752 14.3359 13.5752 13.75C13.5752 13.1641 13.3636 12.6758 12.9404 12.2852C12.5498 11.862 12.0615 11.6504 11.4756 11.6504C10.9222 11.6504 10.4339 11.862 10.0107 12.2852C9.62012 12.6758 9.4248 13.1641 9.4248 13.75C9.4248 14.3359 9.62012 14.8405 10.0107 15.2637Z" fill="#03133D"/>
</svg>
