<svg width="21" height="20" viewBox="0 0 21 20" fill="none" xmlns="http://www.w3.org/2000/svg">
<path d="M10.4756 19.3418L8.96191 17.9746C7.59473 16.7376 6.58561 15.8262 5.93457 15.2402C5.28353 14.6217 4.50228 13.8242 3.59082 12.8477C2.67936 11.8711 2.01204 11.0736 1.58887 10.4551C1.19824 9.83659 0.840169 9.13672 0.514648 8.35547C0.22168 7.54167 0.0751953 6.74414 0.0751953 5.96289C0.0751953 4.36784 0.628581 3.01693 1.73535 1.91016C2.84212 0.803385 4.19303 0.25 5.78809 0.25C7.67611 0.25 9.23861 0.982422 10.4756 2.44727C11.7126 0.982422 13.2751 0.25 15.1631 0.25C16.7907 0.25 18.1579 0.803385 19.2646 1.91016C20.3714 3.01693 20.9248 4.36784 20.9248 5.96289C20.9248 6.74414 20.762 7.54167 20.4365 8.35547C20.111 9.13672 19.7529 9.83659 19.3623 10.4551C18.9717 11.0736 18.3044 11.8711 17.3604 12.8477C16.4489 13.8242 15.6676 14.6217 15.0166 15.2402C14.3981 15.8262 13.389 16.7539 11.9893 18.0234L10.4756 19.3418Z" fill="#03133D"/>
</svg>
