<svg width="104" height="57" viewBox="0 0 104 57" fill="none" xmlns="http://www.w3.org/2000/svg">
<g opacity="0.2">
<path d="M6.04799 31.18C5.03999 31.18 4.13999 30.928 3.34799 30.424C2.55599 29.908 1.93199 29.164 1.47599 28.192C1.01999 27.208 0.791992 26.044 0.791992 24.7C0.791992 23.356 1.01999 22.198 1.47599 21.226C1.93199 20.242 2.55599 19.498 3.34799 18.994C4.13999 18.478 5.03999 18.22 6.04799 18.22C7.05599 18.22 7.95599 18.478 8.74799 18.994C9.55199 19.498 10.182 20.242 10.638 21.226C11.094 22.198 11.322 23.356 11.322 24.7C11.322 26.044 11.094 27.208 10.638 28.192C10.182 29.164 9.55199 29.908 8.74799 30.424C7.95599 30.928 7.05599 31.18 6.04799 31.18ZM6.04799 29.146C6.94799 29.146 7.65599 28.774 8.17199 28.03C8.69999 27.286 8.96399 26.176 8.96399 24.7C8.96399 23.224 8.69999 22.114 8.17199 21.37C7.65599 20.626 6.94799 20.254 6.04799 20.254C5.15999 20.254 4.45199 20.626 3.92399 21.37C3.40799 22.114 3.14999 23.224 3.14999 24.7C3.14999 26.176 3.40799 27.286 3.92399 28.03C4.45199 28.774 5.15999 29.146 6.04799 29.146Z" fill="#0D1116"/>
<path d="M17.1714 18.4V31H14.8314V20.362H12.1674V18.4H17.1714Z" fill="#0D1116"/>
</g>
<path opacity="0.1" d="M10 40L10 57L8 57L8 40L10 40Z" fill="#0D1116"/>
<path d="M45.048 13.18C44.04 13.18 43.14 12.928 42.348 12.424C41.556 11.908 40.932 11.164 40.476 10.192C40.02 9.20797 39.792 8.04397 39.792 6.69997C39.792 5.35597 40.02 4.19797 40.476 3.22597C40.932 2.24197 41.556 1.49797 42.348 0.99397C43.14 0.477971 44.04 0.219971 45.048 0.219971C46.056 0.219971 46.956 0.477971 47.748 0.99397C48.552 1.49797 49.182 2.24197 49.638 3.22597C50.094 4.19797 50.322 5.35597 50.322 6.69997C50.322 8.04397 50.094 9.20797 49.638 10.192C49.182 11.164 48.552 11.908 47.748 12.424C46.956 12.928 46.056 13.18 45.048 13.18ZM45.048 11.146C45.948 11.146 46.656 10.774 47.172 10.03C47.7 9.28597 47.964 8.17597 47.964 6.69997C47.964 5.22397 47.7 4.11397 47.172 3.36997C46.656 2.62597 45.948 2.25397 45.048 2.25397C44.16 2.25397 43.452 2.62597 42.924 3.36997C42.408 4.11397 42.15 5.22397 42.15 6.69997C42.15 8.17597 42.408 9.28597 42.924 10.03C43.452 10.774 44.16 11.146 45.048 11.146Z" fill="#0D1116"/>
<path d="M60.9414 11.02V13H51.6534V11.434L56.6574 6.68197C57.2214 6.14197 57.5994 5.67397 57.7914 5.27797C57.9954 4.86997 58.0974 4.46797 58.0974 4.07197C58.0974 3.48397 57.8994 3.03397 57.5034 2.72197C57.1074 2.40997 56.5254 2.25397 55.7574 2.25397C54.4734 2.25397 53.4894 2.69197 52.8054 3.56797L51.1674 2.30797C51.6594 1.64797 52.3194 1.13797 53.1474 0.777971C53.9874 0.405971 54.9234 0.219971 55.9554 0.219971C57.3234 0.219971 58.4154 0.543971 59.2314 1.19197C60.0474 1.83997 60.4554 2.72197 60.4554 3.83797C60.4554 4.52197 60.3114 5.16397 60.0234 5.76397C59.7354 6.36397 59.1834 7.04797 58.3674 7.81597L55.0014 11.02H60.9414Z" fill="#0D1116"/>
<path opacity="0.5" d="M51 22L51 57L49 57L49 22L51 22Z" fill="#0D1116"/>
<g opacity="0.2">
<path d="M88.048 31.18C87.04 31.18 86.14 30.928 85.348 30.424C84.556 29.908 83.932 29.164 83.476 28.192C83.02 27.208 82.792 26.044 82.792 24.7C82.792 23.356 83.02 22.198 83.476 21.226C83.932 20.242 84.556 19.498 85.348 18.994C86.14 18.478 87.04 18.22 88.048 18.22C89.056 18.22 89.956 18.478 90.748 18.994C91.552 19.498 92.182 20.242 92.638 21.226C93.094 22.198 93.322 23.356 93.322 24.7C93.322 26.044 93.094 27.208 92.638 28.192C92.182 29.164 91.552 29.908 90.748 30.424C89.956 30.928 89.056 31.18 88.048 31.18ZM88.048 29.146C88.948 29.146 89.656 28.774 90.172 28.03C90.7 27.286 90.964 26.176 90.964 24.7C90.964 23.224 90.7 22.114 90.172 21.37C89.656 20.626 88.948 20.254 88.048 20.254C87.16 20.254 86.452 20.626 85.924 21.37C85.408 22.114 85.15 23.224 85.15 24.7C85.15 26.176 85.408 27.286 85.924 28.03C86.452 28.774 87.16 29.146 88.048 29.146Z" fill="#0D1116"/>
<path d="M100.092 23.602C101.256 23.746 102.144 24.142 102.756 24.79C103.368 25.438 103.674 26.248 103.674 27.22C103.674 27.952 103.488 28.618 103.116 29.218C102.744 29.818 102.18 30.298 101.424 30.658C100.68 31.006 99.7675 31.18 98.6875 31.18C97.7875 31.18 96.9175 31.054 96.0775 30.802C95.2495 30.538 94.5415 30.178 93.9535 29.722L94.9615 27.904C95.4175 28.288 95.9695 28.594 96.6175 28.822C97.2775 29.038 97.9555 29.146 98.6515 29.146C99.4795 29.146 100.128 28.978 100.596 28.642C101.076 28.294 101.316 27.826 101.316 27.238C101.316 26.65 101.088 26.194 100.632 25.87C100.188 25.534 99.5035 25.366 98.5795 25.366H97.4275V23.764L100.29 20.362H94.5655V18.4H103.152V19.966L100.092 23.602Z" fill="#0D1116"/>
</g>
<path opacity="0.1" d="M94 40L94 57L92 57L92 40L94 40Z" fill="#0D1116"/>
</svg>
