<svg width="11" height="11" viewBox="0 0 11 11" fill="none" xmlns="http://www.w3.org/2000/svg">
<path d="M8.64453 5.03906C7.78776 6.73438 6.5026 8.01953 4.78906 8.89453L3.50391 7.60938C3.33984 7.42708 3.13932 7.38151 2.90234 7.47266C2.24609 7.69141 1.55339 7.80078 0.824219 7.80078C0.678385 7.80078 0.550781 7.85547 0.441406 7.96484C0.313802 8.07422 0.25 8.21094 0.25 8.375V10.4258C0.25 10.5716 0.313802 10.7083 0.441406 10.8359C0.550781 10.9453 0.678385 11 0.824219 11C2.62891 11 4.29688 10.5625 5.82812 9.6875C7.34115 8.79427 8.54427 7.59115 9.4375 6.07812C10.3125 4.54688 10.75 2.87891 10.75 1.07422C10.75 0.928385 10.6953 0.800781 10.5859 0.691406C10.4583 0.563802 10.3216 0.5 10.1758 0.5H8.125C7.96094 0.5 7.82422 0.563802 7.71484 0.691406C7.60547 0.800781 7.55078 0.928385 7.55078 1.07422C7.55078 1.80339 7.44141 2.49609 7.22266 3.15234C7.14974 3.38932 7.19531 3.58984 7.35938 3.75391L8.64453 5.03906Z" fill="#26A9E0"/>
</svg>
