<svg width="15" height="22" viewBox="0 0 15 22" fill="none" xmlns="http://www.w3.org/2000/svg">
<path d="M10.6445 13.1797L14.7852 17.3203L13.5352 18.5703L9.39453 14.4297V13.7656L9.16016 13.5312C8.14453 14.3906 6.97266 14.8203 5.64453 14.8203C4.13411 14.8203 2.84505 14.2995 1.77734 13.2578C0.735677 12.1901 0.214844 10.9141 0.214844 9.42969C0.214844 7.91927 0.735677 6.64323 1.77734 5.60156C2.84505 4.53385 4.12109 4 5.60547 4C7.11589 4 8.39193 4.53385 9.43359 5.60156C10.5013 6.64323 11.0352 7.91927 11.0352 9.42969C11.0352 10.7578 10.6055 11.9297 9.74609 12.9453L9.98047 13.1797H10.6445ZM2.98828 12.0859C3.71745 12.8151 4.60286 13.1797 5.64453 13.1797C6.6862 13.1797 7.57161 12.8151 8.30078 12.0859C9.02995 11.3568 9.39453 10.4714 9.39453 9.42969C9.39453 8.38802 9.02995 7.5026 8.30078 6.77344C7.57161 6.04427 6.6862 5.67969 5.64453 5.67969C4.60286 5.67969 3.71745 6.04427 2.98828 6.77344C2.25911 7.5026 1.89453 8.38802 1.89453 9.42969C1.89453 10.4714 2.25911 11.3568 2.98828 12.0859Z" fill="#03133D"/>
</svg>
