<svg width="1920" height="460" fill="none" xmlns="http://www.w3.org/2000/svg"><mask id="a" style="mask-type:alpha" maskUnits="userSpaceOnUse" x="0" y="0" width="1920" height="460"><path fill="#fff" d="M0 0h1920v460H0z"/></mask><g mask="url(#a)"><path fill="#F7F7F7" d="M0 0h1920v460H0z"/><circle cx="369.5" cy="369.5" r="349.5" fill="url(#paint0_linear_400_3409)"/><circle cx="1091" cy="24" r="231" fill="url(#paint1_linear_400_3409)"/><circle cx="682" cy="68" r="27" stroke="#FAE4D8" stroke-width="2"/><circle cx="1558" cy="344" r="16" stroke="#FAE4D8" stroke-width="2"/><circle cx="1778.5" cy="42.5" r="10.5" stroke="#FAE4D8" stroke-width="2"/><path d="M1889.26 142.482l-44.13 33.538-6.98-54.988 51.11 21.45zm-522.24 285.702l-32.91-7.758 23.17-24.62 9.74 32.378z" stroke="#FAE3D7" stroke-width="2"/><path d="M786.712 133.74l-21.158-7.701 17.248-14.473 3.91 22.174z" stroke="#FAE3D7"/><path d="M595.905 398.581l-41.537 26.052-1.792-48.998 43.329 22.946z" stroke="#fff"/><path d="M47.296 58.735L66.854 44.4l2.636 24.105-22.194-9.77z" stroke="#FAE3D7"/><path stroke="#FAE3D7" stroke-width="2" d="M1104.08 360.383l41.088 26.698-26.698 41.088-41.088-26.698zm515.28-317.037l25.404-13.987 13.987 25.403-25.403 13.988z"/><path d="M68.043 369.768a.327.327 0 100-.655.327.327 0 000 .655zm-1.74 11.026a.327.327 0 100-.654.327.327 0 000 .654zm-5.071 9.942a.327.327 0 100-.654.327.327 0 000 .654zm-7.897 7.891a.327.327 0 100-.654.327.327 0 000 .654zm-9.949 5.067a.33.33 0 00.327-.327.33.33 0 00-.327-.326.33.33 0 00-.327.326c.015.179.149.327.327.327zm-11.035 1.739a.327.327 0 10.001-.654.327.327 0 000 .654zm-11.02-1.739a.33.33 0 00.328-.327.33.33 0 00-.328-.326.33.33 0 00-.327.326.33.33 0 00.327.327zm-9.949-5.052a.342.342 0 100-.684.342.342 0 000 .684zm-7.896-7.861a.368.368 0 00.371-.372.368.368 0 00-.371-.371.368.368 0 00-.372.371c0 .208.163.372.372.372zm0-41.908a.4.4 0 00.401-.401.4.4 0 00-.401-.401.4.4 0 00-.402.401.4.4 0 00.402.401zm7.896-7.876a.4.4 0 10.001-.802.4.4 0 000 .802zm9.949-5.082a.4.4 0 00.402-.401.4.4 0 00-.402-.401.4.4 0 00-.401.401.39.39 0 00.401.401zm11.02-1.768a.368.368 0 00.372-.372.368.368 0 00-.372-.371.368.368 0 00-.371.371c.014.208.178.372.371.372zm11.035 1.753a.368.368 0 00.372-.371.368.368 0 00-.372-.372.368.368 0 00-.372.372c0 .208.164.371.372.371zm9.949 5.068a.368.368 0 00.372-.372.368.368 0 00-.372-.371.368.368 0 00-.372.371c0 .193.164.372.372.372zm7.897 7.861a.337.337 0 00.342-.342.336.336 0 00-.342-.341.336.336 0 00-.342.341c0 .193.148.342.342.342zm5.071 9.926a.327.327 0 10.001-.653.327.327 0 00-.001.653zm10.663 11.8a1.115 1.115 0 10.001-2.23 1.115 1.115 0 000 2.23zm-1.398 11.086a1.115 1.115 0 10.001-2.23 1.115 1.115 0 000 2.23zm-4.119 10.373c.595 0 1.085-.491 1.085-1.085s-.49-1.085-1.085-1.085-1.086.491-1.086 1.085.49 1.085 1.086 1.085zm-6.574 9.035c.595 0 1.086-.49 1.086-1.085 0-.594-.49-1.085-1.086-1.085-.594 0-1.085.491-1.085 1.085 0 .595.49 1.085 1.085 1.085zm-8.61 7.133a1.09 1.09 0 001.085-1.084c0-.595-.49-1.085-1.085-1.085s-1.086.49-1.086 1.085c0 .594.49 1.084 1.086 1.084zm-10.113 4.756c.595 0 1.086-.491 1.086-1.085 0-.595-.491-1.085-1.086-1.085-.595 0-1.086.49-1.086 1.085-.014.594.476 1.085 1.086 1.085zm-10.99 2.11a1.115 1.115 0 100-2.23 1.115 1.115 0 000 2.23zm-11.169-.699a1.115 1.115 0 10.001-2.23 1.115 1.115 0 000 2.23zm-10.633-3.447a1.115 1.115 0 100-2.23 1.115 1.115 0 000 2.23zm-9.443-5.974c.624 0 1.145-.506 1.145-1.145s-.506-1.144-1.145-1.144a1.145 1.145 0 100 2.289zm0-68.642c.654 0 1.19-.535 1.19-1.188 0-.654-.536-1.189-1.19-1.189-.655 0-1.19.535-1.19 1.189 0 .653.535 1.188 1.19 1.188zm9.443-5.988a1.19 1.19 0 100-2.38 1.19 1.19 0 000 2.38zm10.634-3.463a1.19 1.19 0 100-2.378 1.19 1.19 0 000 2.378zm11.168-.728a1.16 1.16 0 100-2.32 1.16 1.16 0 000 2.32zm10.99 2.095c.64 0 1.16-.52 1.16-1.159a1.16 1.16 0 00-2.32 0c0 .639.506 1.159 1.16 1.159zm10.113 4.771c.64 0 1.16-.521 1.16-1.16a1.16 1.16 0 00-2.32 0c0 .639.52 1.16 1.16 1.16zm8.61 7.088c.625 0 1.145-.505 1.145-1.144 0-.639-.505-1.145-1.145-1.145s-1.145.506-1.145 1.145.52 1.144 1.145 1.144zm6.574 9.05a1.145 1.145 0 000-2.288 1.145 1.145 0 100 2.288zm4.119 10.358a1.115 1.115 0 100-2.23 1.115 1.115 0 000 2.23zm10.321 11.859a1.875 1.875 0 001.874-1.873 1.875 1.875 0 00-3.748 0c0 1.026.848 1.873 1.874 1.873zm-1.16 11.116a1.875 1.875 0 001.874-1.873 1.875 1.875 0 00-3.748 0c-.015 1.04.833 1.873 1.874 1.873zm-3.465 10.64a1.874 1.874 0 100-3.747 1.874 1.874 0 000 3.747zm-5.592 9.689a1.875 1.875 0 001.874-1.873 1.875 1.875 0 00-3.748 0c-.014 1.026.833 1.873 1.874 1.873zm-7.495 8.307a1.875 1.875 0 001.874-1.873 1.875 1.875 0 00-3.748 0c0 1.026.848 1.873 1.874 1.873zm-9.057 6.568a1.875 1.875 0 001.874-1.872 1.875 1.875 0 00-3.748 0c0 1.04.848 1.872 1.874 1.872zm-10.217 4.563a1.875 1.875 0 001.874-1.873 1.875 1.875 0 00-3.748 0c0 1.026.833 1.873 1.874 1.873zm-10.945 2.318a1.875 1.875 0 001.874-1.872 1.875 1.875 0 00-3.748 0c-.015 1.025.833 1.872 1.874 1.872zm-11.198.03a1.903 1.903 0 100-3.806 1.903 1.903 0 000 3.806zm-10.946-2.334a1.897 1.897 0 001.904-1.902 1.897 1.897 0 00-1.904-1.902 1.897 1.897 0 00-1.904 1.902c0 1.055.848 1.902 1.904 1.902zm-10.232-4.547a1.897 1.897 0 001.904-1.902 1.897 1.897 0 00-1.904-1.902 1.897 1.897 0 00-1.903 1.902c0 1.055.862 1.902 1.903 1.902zm0-92.582c1.1 0 1.978-.891 1.978-1.976a1.985 1.985 0 00-1.978-1.976 1.985 1.985 0 00-1.978 1.976c0 1.085.893 1.976 1.978 1.976zm10.232-4.547a1.976 1.976 0 100-3.953c-1.1 0-1.978.892-1.978 1.977 0 1.084.892 1.976 1.978 1.976zm10.946-2.363a1.947 1.947 0 10-1.949-1.946c0 1.075.872 1.946 1.948 1.946zm11.198 0a1.947 1.947 0 100-3.893 1.947 1.947 0 100 3.893zm10.945 2.333a1.944 1.944 0 001.949-1.946 1.945 1.945 0 00-1.949-1.947c-1.07 0-1.948.877-1.948 1.947s.863 1.946 1.948 1.946zm10.217 4.518c1.07 0 1.933-.862 1.933-1.932 0-1.07-.862-1.932-1.933-1.932-1.07 0-1.933.862-1.933 1.932.015 1.07.877 1.932 1.933 1.932zm9.057 6.583c1.07 0 1.933-.862 1.933-1.932 0-1.07-.862-1.932-1.933-1.932-1.07 0-1.933.862-1.933 1.932.014 1.07.877 1.932 1.933 1.932zm7.495 8.307a1.93 1.93 0 001.934-1.932 1.93 1.93 0 00-1.934-1.932c-1.07 0-1.933.862-1.933 1.932 0 1.07.863 1.932 1.933 1.932zm5.592 9.66a1.903 1.903 0 100-3.806 1.903 1.903 0 000 3.806zm3.465 10.64a1.902 1.902 0 10-1.904-1.902c0 1.051.853 1.902 1.904 1.902zm10.083 11.888a2.673 2.673 0 100-5.349 2.674 2.674 0 00-2.677 2.675 2.683 2.683 0 002.677 2.674zm-.996 11.146a2.676 2.676 0 10.001-5.352 2.676 2.676 0 00-.001 5.352zm-2.975 10.789a2.676 2.676 0 10.002-5.352 2.676 2.676 0 00-.002 5.352zm-4.863 10.075a2.674 2.674 0 100-5.35 2.665 2.665 0 00-2.677 2.675 2.674 2.674 0 002.677 2.675zm-6.588 9.051a2.674 2.674 0 002.677-2.675 2.665 2.665 0 00-2.677-2.675 2.665 2.665 0 00-2.677 2.675 2.674 2.674 0 002.677 2.675zm-8.09 7.742a2.676 2.676 0 10.001-5.352 2.676 2.676 0 00-.001 5.352zm-9.34 6.167a2.674 2.674 0 002.677-2.675 2.665 2.665 0 00-2.676-2.675 2.674 2.674 0 00-2.677 2.675 2.665 2.665 0 002.677 2.675zm-10.305 4.384a2.674 2.674 0 100-5.35 2.674 2.674 0 00-2.677 2.675 2.684 2.684 0 002.677 2.675zm-10.916 2.496a2.674 2.674 0 100-5.35 2.674 2.674 0 00-2.677 2.675 2.684 2.684 0 002.677 2.675zm-11.184.506a2.674 2.674 0 002.677-2.675 2.665 2.665 0 00-2.677-2.675 2.674 2.674 0 100 5.35zm-11.094-1.486a2.69 2.69 0 100-5.38 2.69 2.69 0 100 5.38zm-10.648-3.448a2.69 2.69 0 100-5.38 2.69 2.69 0 00-2.692 2.69c-.014 1.486 1.205 2.69 2.692 2.69zm-9.86-5.305a2.69 2.69 0 100-5.38 2.69 2.69 0 00-2.692 2.69c-.014 1.486 1.205 2.69 2.692 2.69zm0-104.114a2.765 2.765 0 100-5.528 2.765 2.765 0 100 5.528zm9.86-5.29a2.76 2.76 0 002.766-2.764 2.76 2.76 0 00-2.766-2.764 2.76 2.76 0 00-2.766 2.764c-.015 1.516 1.234 2.764 2.766 2.764zm10.648-3.478a2.75 2.75 0 100-5.498 2.75 2.75 0 100 5.498zm11.094-1.5a2.75 2.75 0 10.002-5.501 2.75 2.75 0 00-.002 5.501zm11.184.49a2.75 2.75 0 10-2.751-2.749 2.75 2.75 0 002.75 2.749zm10.915 2.496a2.75 2.75 0 002.752-2.749 2.75 2.75 0 00-2.752-2.749 2.75 2.75 0 100 5.498zm10.306 4.37a2.722 2.722 0 002.722-2.72 2.721 2.721 0 00-5.443 0c0 1.501 1.22 2.72 2.722 2.72zm9.34 6.167a2.722 2.722 0 002.721-2.72 2.721 2.721 0 00-5.443 0c0 1.501 1.22 2.72 2.722 2.72zm8.09 7.697a2.69 2.69 0 100-5.379 2.69 2.69 0 100 5.379zm6.588 9.05a2.69 2.69 0 10-2.691-2.69 2.69 2.69 0 002.691 2.69zm4.863 10.091a2.69 2.69 0 100-5.38 2.69 2.69 0 00-2.692 2.69c-.014 1.486 1.205 2.69 2.692 2.69zm2.975 10.774a2.69 2.69 0 100-5.38 2.69 2.69 0 100 5.38zm9.919 11.175a2.72 2.72 0 002.721-2.719 2.722 2.722 0 00-5.443 0 2.722 2.722 0 002.722 2.719zm-.877 11.16a2.72 2.72 0 002.721-2.719 2.722 2.722 0 00-5.443 0 2.722 2.722 0 002.722 2.719zm-2.603 10.893a2.722 2.722 0 002.722-2.719 2.723 2.723 0 00-5.443 0 2.712 2.712 0 002.721 2.719zm-4.298 10.343a2.721 2.721 0 002.722-2.719 2.722 2.722 0 00-5.444 0 2.721 2.721 0 002.722 2.719zm-5.845 9.57a2.75 2.75 0 002.752-2.749 2.75 2.75 0 00-2.752-2.749 2.75 2.75 0 00-2.75 2.749 2.75 2.75 0 002.75 2.749zm-7.272 8.501a2.75 2.75 0 10-2.751-2.749 2.75 2.75 0 002.751 2.749zm-8.521 7.266a2.753 2.753 0 002.751-2.749 2.753 2.753 0 00-2.751-2.749 2.753 2.753 0 00-2.751 2.749 2.744 2.744 0 002.75 2.749zm-9.548 5.826a2.72 2.72 0 100-5.439 2.72 2.72 0 100 5.439zm-10.351 4.28a2.722 2.722 0 002.722-2.72 2.721 2.721 0 00-5.443 0c0 1.501 1.22 2.72 2.722 2.72zm-10.9 2.615a2.721 2.721 0 002.721-2.719 2.722 2.722 0 00-5.443 0 2.721 2.721 0 002.722 2.719zm-11.169.877a2.721 2.721 0 002.722-2.719 2.722 2.722 0 00-5.443 0 2.721 2.721 0 002.721 2.719zm-11.153-.906a2.69 2.69 0 100-5.38 2.69 2.69 0 100 5.38zm-10.901-2.601a2.69 2.69 0 100-5.38 2.69 2.69 0 100 5.38zm-10.351-4.31a2.676 2.676 0 10.001-5.352 2.676 2.676 0 00-.001 5.352zm0-127.266a2.526 2.526 0 100-5.053 2.526 2.526 0 00-2.528 2.527c.015 1.397 1.145 2.526 2.528 2.526zm10.351-4.28a2.525 2.525 0 002.528-2.526 2.525 2.525 0 00-2.528-2.526 2.525 2.525 0 00-2.529 2.526 2.534 2.534 0 002.529 2.526zm10.901-2.586a2.54 2.54 0 100-5.082 2.54 2.54 0 00-2.544 2.541c-.014 1.397 1.13 2.541 2.544 2.541zm11.153-.891a2.542 2.542 0 10.002-5.084 2.542 2.542 0 00-.002 5.084zm11.169.906a2.563 2.563 0 002.573-2.571 2.563 2.563 0 00-2.573-2.57 2.563 2.563 0 00-2.573 2.57 2.573 2.573 0 002.573 2.571zm10.9 2.645a2.604 2.604 0 002.603-2.6 2.604 2.604 0 00-2.602-2.601 2.595 2.595 0 00-2.603 2.601c0 1.441 1.16 2.6 2.603 2.6zm10.351 4.28a2.604 2.604 0 002.603-2.6 2.605 2.605 0 00-2.603-2.601 2.595 2.595 0 00-2.602 2.601c0 1.441 1.16 2.6 2.602 2.6zm9.548 5.871a2.62 2.62 0 002.617-2.616 2.62 2.62 0 00-2.617-2.615 2.62 2.62 0 00-2.618 2.615 2.61 2.61 0 002.618 2.616zm8.521 7.296a2.652 2.652 0 002.647-2.645 2.652 2.652 0 00-2.647-2.646 2.652 2.652 0 00-2.647 2.646 2.643 2.643 0 002.647 2.645zm7.273 8.515a2.652 2.652 0 002.647-2.645 2.651 2.651 0 00-2.647-2.645 2.651 2.651 0 00-2.647 2.645 2.642 2.642 0 002.647 2.645zm5.844 9.57a2.674 2.674 0 100-5.35 2.665 2.665 0 00-2.677 2.675c.015 1.471 1.205 2.675 2.677 2.675zm4.298 10.358a2.69 2.69 0 100-5.38 2.69 2.69 0 00-2.692 2.69c-.015 1.486 1.19 2.69 2.692 2.69zm2.602 10.893a2.69 2.69 0 100-5.38 2.69 2.69 0 100 5.38zm9.801 8.812a.336.336 0 00.342-.341.336.336 0 00-.342-.342.336.336 0 00-.342.342c0 .178.163.341.342.341zm-.773 11.19a.367.367 0 00.371-.371.368.368 0 00-.371-.372.368.368 0 00-.372.372c0 .208.163.371.372.371zm-2.335 10.953a.372.372 0 10-.001-.743.372.372 0 00.001.743zm-3.822 10.55a.4.4 0 100-.802.402.402 0 100 .802zm-5.265 9.883a.402.402 0 100-.804.402.402 0 000 .804zm-6.588 9.05a.402.402 0 100-.803.402.402 0 000 .803zm-7.778 8.054a.401.401 0 10.001-.802.401.401 0 000 .802zm-8.834 6.896a.402.402 0 100-.803.402.402 0 000 .803zm-9.696 5.602a.4.4 0 10.001-.802.4.4 0 000 .802zm-10.395 4.191a.402.402 0 100-.803.402.402 0 000 .803zM46.3 448.841a.368.368 0 00.373-.372.368.368 0 00-.372-.371.368.368 0 00-.372.371c0 .208.163.372.372.372zm-11.138 1.174a.368.368 0 00.372-.372.368.368 0 00-.372-.372.368.368 0 00-.372.372c0 .208.164.372.372.372zm-11.198-.416a.337.337 0 00.342-.342.337.337 0 00-.342-.342.337.337 0 00-.342.342c0 .193.148.342.342.342zm-11.035-1.947a.337.337 0 00.342-.342.337.337 0 00-.342-.342.337.337 0 00-.342.342c0 .193.149.342.342.342zm-10.648-3.463a.342.342 0 100-.683.342.342 0 000 .683zM2.28 295.286a.25.25 0 00.254-.253.25.25 0 00-.253-.252.242.242 0 00-.253.252c0 .149.104.253.253.253zm10.649-3.448a.253.253 0 100-.505.253.253 0 000 .505zm11.035-1.947a.253.253 0 100-.505.253.253 0 000 .505zm11.198-.401a.25.25 0 00.253-.252c0-.149-.12-.238-.253-.238a.25.25 0 00-.253.253c0 .148.12.237.253.237zm11.138 1.204a.266.266 0 00.269-.267.267.267 0 00-.268-.268.267.267 0 00-.268.268c0 .133.12.267.268.267zm10.872 2.705a.267.267 0 00.268-.268.266.266 0 00-.268-.267.266.266 0 00-.268.267c0 .149.12.268.268.268zm10.395 4.191a.268.268 0 100-.536.268.268 0 000 .536zm9.696 5.632a.298.298 0 00.298-.297.299.299 0 00-.298-.298.299.299 0 00-.297.298c0 .163.134.297.297.297zm8.834 6.88a.298.298 0 00.298-.297.298.298 0 00-.298-.297.298.298 0 00-.297.297c0 .163.134.297.297.297zm7.778 8.084a.33.33 0 00.327-.327.33.33 0 00-.327-.327.33.33 0 00-.327.327.33.33 0 00.327.327zm6.588 9.05a.33.33 0 00.327-.327.329.329 0 00-.327-.326.33.33 0 00-.327.326.32.32 0 00.327.327zm5.265 9.897a.327.327 0 100-.654.327.327 0 000 .654zm3.822 10.537a.337.337 0 00.342-.342.337.337 0 00-.342-.342.336.336 0 00-.342.342c0 .193.148.342.342.342zm2.335 10.952a.337.337 0 00.342-.342.337.337 0 00-.342-.342.336.336 0 00-.342.342c0 .193.148.342.342.342z" opacity=".5" fill="#fff"/><circle opacity=".8" cx="1236.5" cy="89.5" r="1.5" transform="rotate(-90 1236.5 89.5)" fill="#fff"/><circle opacity=".8" cx="1236.5" cy="76.5" r="1.5" transform="rotate(-90 1236.5 76.5)" fill="#fff"/><circle opacity=".8" cx="1236.5" cy="63.5" r="1.5" transform="rotate(-90 1236.5 63.5)" fill="#fff"/><circle opacity=".8" cx="1236.5" cy="50.5" r="1.5" transform="rotate(-90 1236.5 50.5)" fill="#fff"/><circle opacity=".8" cx="1236.5" cy="37.5" r="1.5" transform="rotate(-90 1236.5 37.5)" fill="#fff"/><circle opacity=".8" cx="1249.5" cy="89.501" r="1.5" transform="rotate(-90 1249.5 89.5)" fill="#fff"/><circle opacity=".8" cx="1249.5" cy="76.5" r="1.5" transform="rotate(-90 1249.5 76.5)" fill="#fff"/><circle opacity=".8" cx="1249.5" cy="63.5" r="1.5" transform="rotate(-90 1249.5 63.5)" fill="#fff"/><circle opacity=".8" cx="1249.5" cy="50.5" r="1.5" transform="rotate(-90 1249.5 50.5)" fill="#fff"/><circle opacity=".8" cx="1249.5" cy="37.5" r="1.5" transform="rotate(-90 1249.5 37.5)" fill="#fff"/><circle opacity=".8" cx="1262.5" cy="89.501" r="1.5" transform="rotate(-90 1262.5 89.5)" fill="#fff"/><circle opacity=".8" cx="1262.5" cy="76.5" r="1.5" transform="rotate(-90 1262.5 76.5)" fill="#fff"/><circle opacity=".8" cx="1262.5" cy="63.5" r="1.5" transform="rotate(-90 1262.5 63.5)" fill="#fff"/><circle opacity=".8" cx="1262.5" cy="50.5" r="1.5" transform="rotate(-90 1262.5 50.5)" fill="#fff"/><circle opacity=".8" cx="1262.5" cy="37.5" r="1.5" transform="rotate(-90 1262.5 37.5)" fill="#fff"/><circle opacity=".8" cx="1275.5" cy="89.501" r="1.5" transform="rotate(-90 1275.5 89.5)" fill="#fff"/><circle opacity=".8" cx="1275.5" cy="76.5" r="1.5" transform="rotate(-90 1275.5 76.5)" fill="#fff"/><circle opacity=".8" cx="1275.5" cy="63.5" r="1.5" transform="rotate(-90 1275.5 63.5)" fill="#fff"/><circle opacity=".8" cx="1275.5" cy="50.5" r="1.5" transform="rotate(-90 1275.5 50.5)" fill="#fff"/><circle opacity=".8" cx="1275.5" cy="37.5" r="1.5" transform="rotate(-90 1275.5 37.5)" fill="#fff"/><circle opacity=".8" cx="1288.5" cy="89.501" r="1.5" transform="rotate(-90 1288.5 89.5)" fill="#fff"/><circle opacity=".8" cx="1288.5" cy="76.5" r="1.5" transform="rotate(-90 1288.5 76.5)" fill="#fff"/><circle opacity=".8" cx="1288.5" cy="63.5" r="1.5" transform="rotate(-90 1288.5 63.5)" fill="#fff"/><circle opacity=".8" cx="1288.5" cy="50.5" r="1.5" transform="rotate(-90 1288.5 50.5)" fill="#fff"/><circle opacity=".8" cx="1288.5" cy="37.5" r="1.5" transform="rotate(-90 1288.5 37.5)" fill="#fff"/><circle opacity=".8" cx="1301.5" cy="89.501" r="1.5" transform="rotate(-90 1301.5 89.5)" fill="#fff"/><circle opacity=".8" cx="1301.5" cy="76.5" r="1.5" transform="rotate(-90 1301.5 76.5)" fill="#fff"/><circle opacity=".8" cx="1301.5" cy="63.5" r="1.5" transform="rotate(-90 1301.5 63.5)" fill="#fff"/><circle opacity=".8" cx="1301.5" cy="50.5" r="1.5" transform="rotate(-90 1301.5 50.5)" fill="#fff"/><circle opacity=".8" cx="1301.5" cy="37.5" r="1.5" transform="rotate(-90 1301.5 37.5)" fill="#fff"/><circle opacity=".8" cx="1314.5" cy="89.501" r="1.5" transform="rotate(-90 1314.5 89.5)" fill="#fff"/><circle opacity=".8" cx="1314.5" cy="76.5" r="1.5" transform="rotate(-90 1314.5 76.5)" fill="#fff"/><circle opacity=".8" cx="1314.5" cy="63.5" r="1.5" transform="rotate(-90 1314.5 63.5)" fill="#fff"/><circle opacity=".8" cx="1314.5" cy="50.5" r="1.5" transform="rotate(-90 1314.5 50.5)" fill="#fff"/><circle opacity=".8" cx="1314.5" cy="37.5" r="1.5" transform="rotate(-90 1314.5 37.5)" fill="#fff"/><circle opacity=".8" cx="1327.5" cy="89.501" r="1.5" transform="rotate(-90 1327.5 89.5)" fill="#fff"/><circle opacity=".8" cx="1327.5" cy="76.5" r="1.5" transform="rotate(-90 1327.5 76.5)" fill="#fff"/><circle opacity=".8" cx="1327.5" cy="63.5" r="1.5" transform="rotate(-90 1327.5 63.5)" fill="#fff"/><circle opacity=".8" cx="1327.5" cy="50.5" r="1.5" transform="rotate(-90 1327.5 50.5)" fill="#fff"/><circle opacity=".8" cx="1327.5" cy="37.5" r="1.5" transform="rotate(-90 1327.5 37.5)" fill="#fff"/><circle opacity=".8" cx="1340.5" cy="89.501" r="1.5" transform="rotate(-90 1340.5 89.5)" fill="#fff"/><circle opacity=".8" cx="1340.5" cy="76.5" r="1.5" transform="rotate(-90 1340.5 76.5)" fill="#fff"/><circle opacity=".8" cx="1340.5" cy="63.5" r="1.5" transform="rotate(-90 1340.5 63.5)" fill="#fff"/><circle opacity=".8" cx="1340.5" cy="50.5" r="1.5" transform="rotate(-90 1340.5 50.5)" fill="#fff"/><circle opacity=".8" cx="1340.5" cy="37.5" r="1.5" transform="rotate(-90 1340.5 37.5)" fill="#fff"/><circle opacity=".8" cx="1353.5" cy="89.501" r="1.5" transform="rotate(-90 1353.5 89.5)" fill="#fff"/><circle opacity=".8" cx="1353.5" cy="76.5" r="1.5" transform="rotate(-90 1353.5 76.5)" fill="#fff"/><circle opacity=".8" cx="1353.5" cy="63.5" r="1.5" transform="rotate(-90 1353.5 63.5)" fill="#fff"/><circle opacity=".8" cx="1353.5" cy="50.5" r="1.5" transform="rotate(-90 1353.5 50.5)" fill="#fff"/><circle opacity=".8" cx="1353.5" cy="37.5" r="1.5" transform="rotate(-90 1353.5 37.5)" fill="#fff"/><circle opacity=".8" cx="1776.5" cy="282.5" r="1.5" fill="#FAE4D8"/><circle opacity=".8" cx="1789.5" cy="282.5" r="1.5" fill="#FAE4D8"/><circle opacity=".8" cx="1802.5" cy="282.5" r="1.5" fill="#FAE4D8"/><circle opacity=".8" cx="1815.5" cy="282.5" r="1.5" fill="#FAE4D8"/><circle opacity=".8" cx="1828.5" cy="282.5" r="1.5" fill="#FAE4D8"/><circle opacity=".8" cx="1776.5" cy="295.5" r="1.5" fill="#FAE4D8"/><circle opacity=".8" cx="1789.5" cy="295.5" r="1.5" fill="#FAE4D8"/><circle opacity=".8" cx="1802.5" cy="295.5" r="1.5" fill="#FAE4D8"/><circle opacity=".8" cx="1815.5" cy="295.5" r="1.5" fill="#FAE4D8"/><circle opacity=".8" cx="1828.5" cy="295.5" r="1.5" fill="#FAE4D8"/><circle opacity=".8" cx="1776.5" cy="308.5" r="1.5" fill="#FAE4D8"/><circle opacity=".8" cx="1789.5" cy="308.5" r="1.5" fill="#FAE4D8"/><circle opacity=".8" cx="1802.5" cy="308.5" r="1.5" fill="#FAE4D8"/><circle opacity=".8" cx="1815.5" cy="308.5" r="1.5" fill="#FAE4D8"/><circle opacity=".8" cx="1828.5" cy="308.5" r="1.5" fill="#FAE4D8"/><circle opacity=".8" cx="1776.5" cy="321.5" r="1.5" fill="#FAE4D8"/><circle opacity=".8" cx="1789.5" cy="321.5" r="1.5" fill="#FAE4D8"/><circle opacity=".8" cx="1802.5" cy="321.5" r="1.5" fill="#FAE4D8"/><circle opacity=".8" cx="1815.5" cy="321.5" r="1.5" fill="#FAE4D8"/><circle opacity=".8" cx="1828.5" cy="321.5" r="1.5" fill="#FAE4D8"/><circle opacity=".8" cx="1776.5" cy="334.5" r="1.5" fill="#FAE4D8"/><circle opacity=".8" cx="1789.5" cy="334.5" r="1.5" fill="#FAE4D8"/><circle opacity=".8" cx="1802.5" cy="334.5" r="1.5" fill="#FAE4D8"/><circle opacity=".8" cx="1815.5" cy="334.5" r="1.5" fill="#FAE4D8"/><circle opacity=".8" cx="1828.5" cy="334.5" r="1.5" fill="#FAE4D8"/><circle opacity=".8" cx="1776.5" cy="347.5" r="1.5" fill="#FAE4D8"/><circle opacity=".8" cx="1789.5" cy="347.5" r="1.5" fill="#FAE4D8"/><circle opacity=".8" cx="1802.5" cy="347.5" r="1.5" fill="#FAE4D8"/><circle opacity=".8" cx="1815.5" cy="347.5" r="1.5" fill="#FAE4D8"/><circle opacity=".8" cx="1828.5" cy="347.5" r="1.5" fill="#FAE4D8"/><circle opacity=".8" cx="1776.5" cy="360.5" r="1.5" fill="#FAE4D8"/><circle opacity=".8" cx="1789.5" cy="360.5" r="1.5" fill="#FAE4D8"/><circle opacity=".8" cx="1802.5" cy="360.5" r="1.5" fill="#FAE4D8"/><circle opacity=".8" cx="1815.5" cy="360.5" r="1.5" fill="#FAE4D8"/><circle opacity=".8" cx="1828.5" cy="360.5" r="1.5" fill="#FAE4D8"/><circle opacity=".8" cx="1776.5" cy="373.5" r="1.5" fill="#FAE4D8"/><circle opacity=".8" cx="1789.5" cy="373.5" r="1.5" fill="#FAE4D8"/><circle opacity=".8" cx="1802.5" cy="373.5" r="1.5" fill="#FAE4D8"/><circle opacity=".8" cx="1815.5" cy="373.5" r="1.5" fill="#FAE4D8"/><circle opacity=".8" cx="1828.5" cy="373.5" r="1.5" fill="#FAE4D8"/><circle opacity=".8" cx="1776.5" cy="386.5" r="1.5" fill="#FAE4D8"/><circle opacity=".8" cx="1789.5" cy="386.5" r="1.5" fill="#FAE4D8"/><circle opacity=".8" cx="1802.5" cy="386.5" r="1.5" fill="#FAE4D8"/><circle opacity=".8" cx="1815.5" cy="386.5" r="1.5" fill="#FAE4D8"/><circle opacity=".8" cx="1828.5" cy="386.5" r="1.5" fill="#FAE4D8"/><circle opacity=".8" cx="1776.5" cy="399.5" r="1.5" fill="#FAE4D8"/><circle opacity=".8" cx="1776.5" cy="413" r="1.5" fill="#FAE4D8"/><circle opacity=".8" cx="1776.5" cy="425.5" r="1.5" fill="#FAE4D8"/><circle opacity=".8" cx="1789.5" cy="399.5" r="1.5" fill="#FAE4D8"/><circle opacity=".8" cx="1789.5" cy="413" r="1.5" fill="#FAE4D8"/><circle opacity=".8" cx="1789.5" cy="425.5" r="1.5" fill="#FAE4D8"/><circle opacity=".8" cx="1802.5" cy="399.5" r="1.5" fill="#FAE4D8"/><circle opacity=".8" cx="1802.5" cy="413" r="1.5" fill="#FAE4D8"/><circle opacity=".8" cx="1802.5" cy="425.5" r="1.5" fill="#FAE4D8"/><circle opacity=".8" cx="1815.5" cy="399.5" r="1.5" fill="#FAE4D8"/><circle opacity=".8" cx="1815.5" cy="413" r="1.5" fill="#FAE4D8"/><circle opacity=".8" cx="1815.5" cy="425.5" r="1.5" fill="#FAE4D8"/><circle opacity=".8" cx="1828.5" cy="399.5" r="1.5" fill="#FAE4D8"/><circle opacity=".8" cx="1828.5" cy="413" r="1.5" fill="#FAE4D8"/><circle opacity=".8" cx="1828.5" cy="425.5" r="1.5" fill="#FAE4D8"/></g><defs><linearGradient id="paint0_linear_400_3409" x1="201.5" y1="83" x2="652.5" y2="502" gradientUnits="userSpaceOnUse"><stop stop-color="#FBDFD1"/><stop offset="1" stop-color="#FAEFE7"/></linearGradient><linearGradient id="paint1_linear_400_3409" x1="1230" y1="200" x2="885.5" y2="12.5" gradientUnits="userSpaceOnUse"><stop stop-color="#FBDFD1"/><stop offset="1" stop-color="#FAEFE7"/></linearGradient></defs></svg>