<svg width="320" height="435" fill="none" xmlns="http://www.w3.org/2000/svg"><g filter="url(#filter0_d_244_2377)"><mask id="a" style="mask-type:alpha" maskUnits="userSpaceOnUse" x="0" y="0" width="320" height="427"><path fill="#fff" d="M0 0h320v427H0z"/></mask><g mask="url(#a)"><path fill="#F7F7F7" d="M0 0h320v427H0z"/><circle cx="97.5" cy="72.5" r="177.5" fill="url(#paint0_linear_244_2377)"/><circle cx="299" cy="401" r="93" fill="url(#paint1_linear_244_2377)"/><circle opacity=".8" cx="161.5" cy="413.5" r="1.5" transform="rotate(-90 161.5 413.5)" fill="#fff"/><circle opacity=".8" cx="161.5" cy="400.5" r="1.5" transform="rotate(-90 161.5 400.5)" fill="#fff"/><circle opacity=".8" cx="161.5" cy="387.5" r="1.5" transform="rotate(-90 161.5 387.5)" fill="#fff"/><circle opacity=".8" cx="161.5" cy="374.5" r="1.5" transform="rotate(-90 161.5 374.5)" fill="#fff"/><circle opacity=".8" cx="161.5" cy="361.5" r="1.5" transform="rotate(-90 161.5 361.5)" fill="#fff"/><circle opacity=".8" cx="174.5" cy="413.5" r="1.5" transform="rotate(-90 174.5 413.5)" fill="#fff"/><circle opacity=".8" cx="174.5" cy="400.5" r="1.5" transform="rotate(-90 174.5 400.5)" fill="#fff"/><circle opacity=".8" cx="174.5" cy="387.5" r="1.5" transform="rotate(-90 174.5 387.5)" fill="#fff"/><circle opacity=".8" cx="174.5" cy="374.5" r="1.5" transform="rotate(-90 174.5 374.5)" fill="#fff"/><circle opacity=".8" cx="174.5" cy="361.5" r="1.5" transform="rotate(-90 174.5 361.5)" fill="#fff"/><circle opacity=".8" cx="187.5" cy="413.5" r="1.5" transform="rotate(-90 187.5 413.5)" fill="#fff"/><circle opacity=".8" cx="187.5" cy="400.5" r="1.5" transform="rotate(-90 187.5 400.5)" fill="#fff"/><circle opacity=".8" cx="187.5" cy="387.5" r="1.5" transform="rotate(-90 187.5 387.5)" fill="#fff"/><circle opacity=".8" cx="187.5" cy="374.5" r="1.5" transform="rotate(-90 187.5 374.5)" fill="#fff"/><circle opacity=".8" cx="187.5" cy="361.5" r="1.5" transform="rotate(-90 187.5 361.5)" fill="#fff"/><circle opacity=".8" cx="200.5" cy="413.5" r="1.5" transform="rotate(-90 200.5 413.5)" fill="#fff"/><circle opacity=".8" cx="200.5" cy="400.5" r="1.5" transform="rotate(-90 200.5 400.5)" fill="#fff"/><circle opacity=".8" cx="200.5" cy="387.5" r="1.5" transform="rotate(-90 200.5 387.5)" fill="#fff"/><circle opacity=".8" cx="200.5" cy="374.5" r="1.5" transform="rotate(-90 200.5 374.5)" fill="#fff"/><circle opacity=".8" cx="200.5" cy="361.5" r="1.5" transform="rotate(-90 200.5 361.5)" fill="#fff"/><circle opacity=".8" cx="213.5" cy="413.5" r="1.5" transform="rotate(-90 213.5 413.5)" fill="#fff"/><circle opacity=".8" cx="213.5" cy="400.5" r="1.5" transform="rotate(-90 213.5 400.5)" fill="#fff"/><circle opacity=".8" cx="213.5" cy="387.5" r="1.5" transform="rotate(-90 213.5 387.5)" fill="#fff"/><circle opacity=".8" cx="213.5" cy="374.5" r="1.5" transform="rotate(-90 213.5 374.5)" fill="#fff"/><circle opacity=".8" cx="213.5" cy="361.5" r="1.5" transform="rotate(-90 213.5 361.5)" fill="#fff"/><circle opacity=".8" cx="226.5" cy="413.5" r="1.5" transform="rotate(-90 226.5 413.5)" fill="#fff"/><circle opacity=".8" cx="226.5" cy="400.5" r="1.5" transform="rotate(-90 226.5 400.5)" fill="#fff"/><circle opacity=".8" cx="226.5" cy="387.5" r="1.5" transform="rotate(-90 226.5 387.5)" fill="#fff"/><circle opacity=".8" cx="226.5" cy="374.5" r="1.5" transform="rotate(-90 226.5 374.5)" fill="#fff"/><circle opacity=".8" cx="226.5" cy="361.5" r="1.5" transform="rotate(-90 226.5 361.5)" fill="#fff"/><circle opacity=".8" cx="239.5" cy="413.5" r="1.5" transform="rotate(-90 239.5 413.5)" fill="#fff"/><circle opacity=".8" cx="239.5" cy="400.5" r="1.5" transform="rotate(-90 239.5 400.5)" fill="#fff"/><circle opacity=".8" cx="239.5" cy="387.5" r="1.5" transform="rotate(-90 239.5 387.5)" fill="#fff"/><circle opacity=".8" cx="239.5" cy="374.5" r="1.5" transform="rotate(-90 239.5 374.5)" fill="#fff"/><circle opacity=".8" cx="239.5" cy="361.5" r="1.5" transform="rotate(-90 239.5 361.5)" fill="#fff"/><circle opacity=".8" cx="252.5" cy="413.5" r="1.5" transform="rotate(-90 252.5 413.5)" fill="#fff"/><circle opacity=".8" cx="252.5" cy="400.5" r="1.5" transform="rotate(-90 252.5 400.5)" fill="#fff"/><circle opacity=".8" cx="252.5" cy="387.5" r="1.5" transform="rotate(-90 252.5 387.5)" fill="#fff"/><circle opacity=".8" cx="252.5" cy="374.5" r="1.5" transform="rotate(-90 252.5 374.5)" fill="#fff"/><circle opacity=".8" cx="252.5" cy="361.5" r="1.5" transform="rotate(-90 252.5 361.5)" fill="#fff"/><circle opacity=".8" cx="265.5" cy="413.5" r="1.5" transform="rotate(-90 265.5 413.5)" fill="#fff"/><circle opacity=".8" cx="265.5" cy="400.5" r="1.5" transform="rotate(-90 265.5 400.5)" fill="#fff"/><circle opacity=".8" cx="265.5" cy="387.5" r="1.5" transform="rotate(-90 265.5 387.5)" fill="#fff"/><circle opacity=".8" cx="265.5" cy="374.5" r="1.5" transform="rotate(-90 265.5 374.5)" fill="#fff"/><circle opacity=".8" cx="265.5" cy="361.5" r="1.5" transform="rotate(-90 265.5 361.5)" fill="#fff"/><circle opacity=".8" cx="278.5" cy="413.5" r="1.5" transform="rotate(-90 278.5 413.5)" fill="#fff"/><circle opacity=".8" cx="278.5" cy="400.5" r="1.5" transform="rotate(-90 278.5 400.5)" fill="#fff"/><circle opacity=".8" cx="278.5" cy="387.5" r="1.5" transform="rotate(-90 278.5 387.5)" fill="#fff"/><circle opacity=".8" cx="278.5" cy="374.5" r="1.5" transform="rotate(-90 278.5 374.5)" fill="#fff"/><circle opacity=".8" cx="278.5" cy="361.5" r="1.5" transform="rotate(-90 278.5 361.5)" fill="#fff"/><path stroke="#FAE3D7" d="M284.352 14.689l19.502 12.193-11.663 18.654-19.502-12.193zm-.497 223.605l19.558-14.335 2.636 24.105-22.194-9.77z"/><circle cx="306" cy="76" r="13.5" stroke="#FAE4D8"/></g></g><defs><linearGradient id="paint0_linear_244_2377" x1="12.178" y1="-73.004" x2="241.227" y2="139.793" gradientUnits="userSpaceOnUse"><stop stop-color="#FBDFD1"/><stop offset="1" stop-color="#FAEFE7"/></linearGradient><linearGradient id="paint1_linear_244_2377" x1="354.961" y1="471.857" x2="216.266" y2="396.37" gradientUnits="userSpaceOnUse"><stop stop-color="#FBDFD1"/><stop offset="1" stop-color="#FAEFE7"/></linearGradient><filter id="filter0_d_244_2377" x="-4" y="0" width="328" height="435" filterUnits="userSpaceOnUse" color-interpolation-filters="sRGB"><feFlood flood-opacity="0" result="BackgroundImageFix"/><feColorMatrix in="SourceAlpha" values="0 0 0 0 0 0 0 0 0 0 0 0 0 0 0 0 0 0 127 0" result="hardAlpha"/><feOffset dy="4"/><feGaussianBlur stdDeviation="2"/><feComposite in2="hardAlpha" operator="out"/><feColorMatrix values="0 0 0 0 0 0 0 0 0 0 0 0 0 0 0 0 0 0 0.25 0"/><feBlend in2="BackgroundImageFix" result="effect1_dropShadow_244_2377"/><feBlend in="SourceGraphic" in2="effect1_dropShadow_244_2377" result="shape"/></filter></defs></svg>