<svg width="14" height="14" fill="none" xmlns="http://www.w3.org/2000/svg"><path d="M12 3.344V2c0-.23-.115-.344-.344-.344h-1.312c-.23 0-.344.115-.344.344v1.344c0 .208.115.312.344.312h1.312c.23 0 .344-.104.344-.312zm-10.344 9h10c.23 0 .344-.115.344-.344V6.344h-1.406c.041.25.062.468.062.656 0 1.104-.396 2.052-1.187 2.844C8.698 10.614 7.76 11 6.656 11a3.933 3.933 0 01-2.843-1.156A3.933 3.933 0 012.655 7c0-.23.021-.448.063-.656H1.344V12c0 .23.104.344.312.344zm6.907-7.219a2.594 2.594 0 00-1.907-.781c-.729 0-1.354.26-1.875.781A2.557 2.557 0 004 7c0 .73.26 1.354.781 1.875a2.56 2.56 0 001.875.781c.75 0 1.386-.26 1.907-.781.52-.52.78-1.146.78-1.875 0-.73-.26-1.354-.78-1.875zM12 .344c.375 0 .688.135.938.406.27.25.406.552.406.906v10.688c0 .354-.136.656-.406.906-.25.27-.563.406-.938.406H1.344c-.375 0-.698-.135-.969-.406A1.235 1.235 0 010 12.344V1.656C0 1.302.125 1 .375.75c.27-.27.594-.406.969-.406H12z" fill="#03133D"/></svg>