<svg width="14" height="14" fill="none" xmlns="http://www.w3.org/2000/svg"><path d="M10.219 8.188c0-.459-.084-.792-.25-1-.167-.23-.48-.344-.938-.344-.562 0-.958.166-1.187.5-.23.333-.344.802-.344 1.406v4.563a.338.338 0 01-.094.25.338.338 0 01-.25.093H4.781a.415.415 0 01-.25-.094.338.338 0 01-.093-.25V4.876a.3.3 0 01.093-.219c.084-.083.167-.125.25-.125h2.313c.083 0 .146.021.187.063a.303.303 0 01.125.187v.157a.525.525 0 01.032.218c.583-.562 1.375-.843 2.375-.843 1.104 0 1.968.28 2.593.843s.938 1.386.938 2.469v5.688a.297.297 0 01-.125.25.3.3 0 01-.219.093h-2.438a.415.415 0 01-.25-.094.338.338 0 01-.093-.25V8.189zm-7-6.22c0 .438-.156.824-.469 1.157a1.571 1.571 0 01-1.156.469c-.438 0-.813-.156-1.125-.469A1.64 1.64 0 010 1.969C0 1.51.156 1.125.469.812A1.534 1.534 0 011.594.344c.458 0 .843.156 1.156.469.313.312.469.697.469 1.156zm-.063 2.907v8.438a.297.297 0 01-.125.25.3.3 0 01-.219.093H.438a.338.338 0 01-.25-.094.338.338 0 01-.094-.25V4.876a.3.3 0 01.093-.219.297.297 0 01.25-.125h2.376c.083 0 .156.042.218.125.084.063.125.136.125.219z" fill="#03133D"/></svg>