<svg width="103" height="30" fill="none" xmlns="http://www.w3.org/2000/svg"><g clip-path="url(#clip0_235_4760)"><path d="M4.269 12.763c.895-4.535 4.43-8.117 8.936-9.067a9.804 9.804 0 012.321-2.125 9.626 9.626 0 00-5.15-1.484C5.032.087.696 4.434.696 9.795a9.67 9.67 0 001.538 5.249 9.676 9.676 0 012.035-2.282v.001z" fill="#26A9E0"/><path d="M17.9 3.678a11.575 11.575 0 019 8.98 9.798 9.798 0 012.056 2.299 9.675 9.675 0 001.538-5.249C30.494 4.347 26.16 0 20.81 0a9.63 9.63 0 00-5.282 1.57A9.766 9.766 0 0117.9 3.678z" fill="#8BC53F"/><path d="M13.206 3.696a11.566 11.566 0 014.693-.018 9.774 9.774 0 00-2.373-2.107 9.758 9.758 0 00-2.322 2.125h.002z" fill="#009E4B"/><path d="M13.33 26.375c-4.546-.906-8.131-4.489-9.051-9.042a9.727 9.727 0 01-2.046-2.288 9.69 9.69 0 00-1.537 5.248c0 5.36 4.336 9.707 9.685 9.707a9.622 9.622 0 005.282-1.567 9.732 9.732 0 01-2.331-2.058h-.001z" fill="#FFDD15"/><path d="M4.279 17.334a11.658 11.658 0 01-.01-4.571 9.676 9.676 0 00-2.035 2.281 9.668 9.668 0 002.045 2.29z" fill="#5D9849"/><path d="M28.956 14.958a9.796 9.796 0 01-2.026 2.275c-.881 4.57-4.447 8.185-8.99 9.125a9.858 9.858 0 01-2.28 2.075 9.63 9.63 0 005.146 1.482c5.348 0 9.684-4.346 9.684-9.707a9.66 9.66 0 00-1.538-5.25h.004z" fill="#F3793B"/><path d="M26.9 12.66a11.65 11.65 0 01.03 4.572 9.752 9.752 0 002.027-2.274 9.773 9.773 0 00-2.057-2.299z" fill="#946A38"/><path d="M17.942 26.358a11.36 11.36 0 01-2.347.242 11.43 11.43 0 01-2.264-.225 9.728 9.728 0 002.331 2.058 9.775 9.775 0 002.28-2.074z" fill="#F58836"/><path d="M11.127 9.521a9.686 9.686 0 012.079-5.825 11.571 11.571 0 00-8.936 9.068 9.617 9.617 0 015.798-2.172c.315-.393.67-.751 1.058-1.07z" fill="#0A7599"/><path d="M21.049 10.502a9.632 9.632 0 015.851 2.157c-.934-4.514-4.49-8.065-9-8.98a9.674 9.674 0 012.16 5.84c.361.294.692.624.989.982z" fill="#57843C"/><path d="M15.595 7.93c1.693 0 3.247.594 4.465 1.59a9.671 9.671 0 00-2.16-5.842 11.563 11.563 0 00-2.305-.23c-.819 0-1.618.085-2.39.248a9.686 9.686 0 00-2.078 5.825 7.03 7.03 0 014.468-1.592z" fill="#016A37"/><path d="M10.105 19.499a9.622 9.622 0 01-5.826-2.166c.92 4.552 4.505 8.135 9.053 9.042a9.671 9.671 0 01-2.2-5.848 7.057 7.057 0 01-1.026-1.028z" fill="#A89332"/><path d="M8.518 15.023a7.07 7.07 0 011.551-4.431 9.61 9.61 0 00-5.8 2.174 11.696 11.696 0 00.008 4.57 9.627 9.627 0 005.829 2.166 7.08 7.08 0 01-1.587-4.476v-.003z" fill="#3A6932"/><path d="M20.062 20.526a9.669 9.669 0 01-2.12 5.832c4.545-.94 8.108-4.554 8.992-9.125a9.605 9.605 0 01-5.773 2.175c-.323.412-.69.787-1.095 1.116l-.004.002z" fill="#C05E2F"/><path d="M26.9 12.66a9.638 9.638 0 00-5.85-2.16 7.078 7.078 0 011.623 4.521 7.07 7.07 0 01-1.515 4.387 9.638 9.638 0 005.773-2.177 11.655 11.655 0 00-.03-4.575v.002z" fill="#62461E"/><path d="M15.595 22.116a7.028 7.028 0 01-4.465-1.588 9.677 9.677 0 002.2 5.846 11.457 11.457 0 004.611-.015 9.671 9.671 0 002.117-5.833 7.018 7.018 0 01-4.466 1.591h.003z" fill="#A14B24"/><path d="M41.757 8.24h2.29v10.977h6.855v2.09h-9.145V8.24zm12.36 7.524V8.24h2.292v7.43c0 2.428 1.247 3.734 3.296 3.734 2.026 0 3.278-1.233 3.278-3.64V8.24h2.29v7.41c0 3.904-2.2 5.863-5.608 5.863-3.39 0-5.55-1.96-5.55-5.75h.002zM70.062 8.24h2.441l3.963 6.18 3.965-6.18h2.44v13.068h-2.289v-9.37l-4.116 6.16h-.075l-4.078-6.124v9.333H70.06L70.058 8.24h.004zm22.148-.093h2.123l5.736 13.16h-2.422l-1.321-3.153h-6.163l-1.34 3.154h-2.347L92.21 8.15v-.003zm3.278 7.972l-2.255-5.228L91 16.121h4.489v-.002z" fill="#333"/></g><defs><clipPath id="clip0_235_4760"><path fill="#fff" d="M0 0h103v30H0z"/></clipPath></defs></svg>