<svg width="14" height="12" fill="none" xmlns="http://www.w3.org/2000/svg"><path d="M11.969 3.281v.344a7.66 7.66 0 01-.531 2.781 8.08 8.08 0 01-1.47 2.469c-.624.75-1.447 1.365-2.468 1.844-1 .458-2.104.687-3.313.687A7.618 7.618 0 010 10.187c.208.021.427.032.656.032a5.436 5.436 0 003.406-1.156A2.836 2.836 0 012.438 8.5 2.648 2.648 0 011.5 7.156a2.087 2.087 0 001.219-.063 2.662 2.662 0 01-1.563-.937 2.609 2.609 0 01-.625-1.718v-.032c.396.209.813.323 1.25.344C.97 4.187.563 3.427.563 2.469c0-.5.125-.959.375-1.375.687.833 1.51 1.5 2.468 2 .98.5 2.031.781 3.156.844a3.18 3.18 0 01-.062-.626c0-.75.26-1.385.781-1.906C7.823.865 8.47.594 9.22.594c.791 0 1.458.281 2 .844a5.723 5.723 0 001.75-.657 2.627 2.627 0 01-1.219 1.5 5.781 5.781 0 001.594-.406 5.874 5.874 0 01-1.375 1.406z" fill="#03133D"/></svg>