<svg width="45" height="74" viewBox="0 0 45 74" fill="none" xmlns="http://www.w3.org/2000/svg">
<path opacity="0.2" d="M20.032 14.12C19.36 14.12 18.76 13.952 18.232 13.616C17.704 13.272 17.288 12.776 16.984 12.128C16.68 11.472 16.528 10.696 16.528 9.8C16.528 8.904 16.68 8.132 16.984 7.484C17.288 6.828 17.704 6.332 18.232 5.996C18.76 5.652 19.36 5.48 20.032 5.48C20.704 5.48 21.304 5.652 21.832 5.996C22.368 6.332 22.788 6.828 23.092 7.484C23.396 8.132 23.548 8.904 23.548 9.8C23.548 10.696 23.396 11.472 23.092 12.128C22.788 12.776 22.368 13.272 21.832 13.616C21.304 13.952 20.704 14.12 20.032 14.12ZM20.032 12.764C20.632 12.764 21.104 12.516 21.448 12.02C21.8 11.524 21.976 10.784 21.976 9.8C21.976 8.816 21.8 8.076 21.448 7.58C21.104 7.084 20.632 6.836 20.032 6.836C19.44 6.836 18.968 7.084 18.616 7.58C18.272 8.076 18.1 8.816 18.1 9.8C18.1 10.784 18.272 11.524 18.616 12.02C18.968 12.516 19.44 12.764 20.032 12.764ZM27.4476 5.6V14H25.8876V6.908H24.1116V5.6H27.4476Z" fill="#03133D"/>
<rect opacity="0.1" y="9" width="13" height="2" fill="#03133D"/>
<path opacity="0.2" d="M20.032 68.12C19.36 68.12 18.76 67.952 18.232 67.616C17.704 67.272 17.288 66.776 16.984 66.128C16.68 65.472 16.528 64.696 16.528 63.8C16.528 62.904 16.68 62.132 16.984 61.484C17.288 60.828 17.704 60.332 18.232 59.996C18.76 59.652 19.36 59.48 20.032 59.48C20.704 59.48 21.304 59.652 21.832 59.996C22.368 60.332 22.788 60.828 23.092 61.484C23.396 62.132 23.548 62.904 23.548 63.8C23.548 64.696 23.396 65.472 23.092 66.128C22.788 66.776 22.368 67.272 21.832 67.616C21.304 67.952 20.704 68.12 20.032 68.12ZM20.032 66.764C20.632 66.764 21.104 66.516 21.448 66.02C21.8 65.524 21.976 64.784 21.976 63.8C21.976 62.816 21.8 62.076 21.448 61.58C21.104 61.084 20.632 60.836 20.032 60.836C19.44 60.836 18.968 61.084 18.616 61.58C18.272 62.076 18.1 62.816 18.1 63.8C18.1 64.784 18.272 65.524 18.616 66.02C18.968 66.516 19.44 66.764 20.032 66.764ZM28.061 63.068C28.837 63.164 29.429 63.428 29.837 63.86C30.245 64.292 30.449 64.832 30.449 65.48C30.449 65.968 30.325 66.412 30.077 66.812C29.829 67.212 29.453 67.532 28.949 67.772C28.453 68.004 27.845 68.12 27.125 68.12C26.525 68.12 25.945 68.036 25.385 67.868C24.833 67.692 24.361 67.452 23.969 67.148L24.641 65.936C24.945 66.192 25.313 66.396 25.745 66.548C26.185 66.692 26.637 66.764 27.101 66.764C27.653 66.764 28.085 66.652 28.397 66.428C28.717 66.196 28.877 65.884 28.877 65.492C28.877 65.1 28.725 64.796 28.421 64.58C28.125 64.356 27.669 64.244 27.053 64.244H26.285V63.176L28.193 60.908H24.377V59.6H30.101V60.644L28.061 63.068Z" fill="#03133D"/>
<rect opacity="0.1" y="63" width="13" height="2" fill="#03133D"/>
<path d="M34.032 41.12C33.36 41.12 32.76 40.952 32.232 40.616C31.704 40.272 31.288 39.776 30.984 39.128C30.68 38.472 30.528 37.696 30.528 36.8C30.528 35.904 30.68 35.132 30.984 34.484C31.288 33.828 31.704 33.332 32.232 32.996C32.76 32.652 33.36 32.48 34.032 32.48C34.704 32.48 35.304 32.652 35.832 32.996C36.368 33.332 36.788 33.828 37.092 34.484C37.396 35.132 37.548 35.904 37.548 36.8C37.548 37.696 37.396 38.472 37.092 39.128C36.788 39.776 36.368 40.272 35.832 40.616C35.304 40.952 34.704 41.12 34.032 41.12ZM34.032 39.764C34.632 39.764 35.104 39.516 35.448 39.02C35.8 38.524 35.976 37.784 35.976 36.8C35.976 35.816 35.8 35.076 35.448 34.58C35.104 34.084 34.632 33.836 34.032 33.836C33.44 33.836 32.968 34.084 32.616 34.58C32.272 35.076 32.1 35.816 32.1 36.8C32.1 37.784 32.272 38.524 32.616 39.02C32.968 39.516 33.44 39.764 34.032 39.764ZM44.6276 39.68V41H38.4356V39.956L41.7716 36.788C42.1476 36.428 42.3996 36.116 42.5276 35.852C42.6636 35.58 42.7316 35.312 42.7316 35.048C42.7316 34.656 42.5996 34.356 42.3356 34.148C42.0716 33.94 41.6836 33.836 41.1716 33.836C40.3156 33.836 39.6596 34.128 39.2036 34.712L38.1116 33.872C38.4396 33.432 38.8796 33.092 39.4316 32.852C39.9916 32.604 40.6156 32.48 41.3036 32.48C42.2156 32.48 42.9436 32.696 43.4876 33.128C44.0316 33.56 44.3036 34.148 44.3036 34.892C44.3036 35.348 44.2076 35.776 44.0156 36.176C43.8236 36.576 43.4556 37.032 42.9116 37.544L40.6676 39.68H44.6276Z" fill="#03133D"/>
<rect opacity="0.5" y="36" width="27" height="2" fill="#03133D"/>
</svg>
